<?xml version="1.0" encoding="utf-8"?>
<!-- Generator: Adobe Illustrator 15.0.0, SVG Export Plug-In  -->
<!DOCTYPE svg PUBLIC "-//W3C//DTD SVG 1.1//EN" "http://www.w3.org/Graphics/SVG/1.1/DTD/svg11.dtd" [
	<!ENTITY ns_flows "http://ns.adobe.com/Flows/1.0/">
]>
<svg version="1.1"
	 xmlns="http://www.w3.org/2000/svg" xmlns:xlink="http://www.w3.org/1999/xlink" xmlns:a="http://ns.adobe.com/AdobeSVGViewerExtensions/3.0/"
	 x="0px" y="0px" width="22px" height="28px" viewBox="0 0 22 28" overflow="visible" enable-background="new 0 0 22 28"
	 xml:space="preserve">
<defs>
</defs>
<path fill="#FFFFFF" d="M19.333,0.432c-0.418,0.335-0.754,1.088-1.088,1.59c-0.418,0.669-1.004,1.338-1.422,2.091
	c-0.502,0.753-1.004,1.422-1.422,2.175c-0.502,0.753-0.754,1.673-1.004,2.594c-0.252,0.837-0.754,1.59-1.088,2.51
	c-0.037,0.113-0.854,4.782-1.762,5.102c-1.113,0.393-2.367-3.579-2.506-3.763c-0.25-0.585-0.67-1.004-0.92-1.59
	C7.704,9.97,7.118,8.882,6.532,7.794C6.03,6.791,5.444,5.786,4.775,4.782C4.524,4.364,4.19,3.946,3.938,3.527
	C3.771,3.109,3.353,2.774,3.186,2.356C2.851,1.269,1.93,0.599,0.842,1.101C0.006,1.436-0.245,2.523,0.257,3.276
	c1.255,2.008,2.677,3.849,3.849,5.94c0.167,0.167,0.418,1.171,0.586,1.255c0.083,0,0.585,0.753,0.669,0.836
	c0.502,1.004,0.837,2.175,1.423,3.263c0.502,0.92,0.668,2.092,1.17,3.012c0.336,0.418,0.252,0.836,0.418,1.255
	c0.252,0.585,0.502,1.004,0.586,1.59c0.252,1.255,0.336,2.593,0.418,3.932c0.084,1.171-0.25,2.091,1.004,2.677
	c0.252,0.585,1.674,1.255,1.926,0.418c0.084-0.251,0.418-0.502,0.586-0.836c0.166-0.334,0-1.171,0-1.59
	c-0.502-1.84,0.334-4.267,0.836-6.023c0.586-2.008,1.338-4.016,2.008-5.94c0.168-0.585,0.168-1.004,0.502-1.506
	c0.168-0.502,0.502-0.92,0.586-1.422c0.334-0.92,0.502-1.673,1.088-2.51c1.088-1.506,2.008-3.263,3.262-4.769
	C22.512,1.436,21.088-0.99,19.333,0.432z"/>
</svg>
