<?xml version="1.0" encoding="utf-8"?>
<!-- Generator: Adobe Illustrator 15.0.0, SVG Export Plug-In  -->
<!DOCTYPE svg PUBLIC "-//W3C//DTD SVG 1.1//EN" "http://www.w3.org/Graphics/SVG/1.1/DTD/svg11.dtd" [
	<!ENTITY ns_flows "http://ns.adobe.com/Flows/1.0/">
]>
<svg version="1.1"
	 xmlns="http://www.w3.org/2000/svg" xmlns:xlink="http://www.w3.org/1999/xlink" xmlns:a="http://ns.adobe.com/AdobeSVGViewerExtensions/3.0/"
	 x="0px" y="0px" width="97px" height="80px" viewBox="-21.555 -13.07 97 80"
	 overflow="visible" enable-background="new -21.555 -13.07 97 80" xml:space="preserve">
<defs>
</defs>
<path display="none" fill="#FFFFFF" d="M12.495,32.81c0,0-7.822-7.143-11.223,1.871l-1.148,0.893c0,0,0.718,0.268,1.318,0.468
	c0.383,0.723,2.891,2.38,6.122,1.871c0,0,4.421,6.292,17.005,7.312s13.604,0,13.604,0l10.883,3.911c0,0,1.021-0.68,2.551-0.68
	l-12.414-5.782c0,0-5.271-6.292-14.284-8.673C15.896,31.62,12.495,32.81,12.495,32.81z"/>
<path display="none" fill="#FFFFFF" d="M15.386,33.49c0,0,3.231-3.741,3.741-11.904c0,0,7.312-10.543,6.972-18.706
	c0,0,5.441,2.21,5.611,8.502c0.17,6.292-0.68,7.142,0,11.053s-1.53,15.815-1.53,15.815"/>
<path display="none" fill="#FFFFFF" d="M12.951,32.99c0,0-7.822-7.143-11.223,1.871L0.58,35.753c0,0,0.718,0.268,1.318,0.468
	c0.383,0.723,2.891,2.38,6.122,1.871c0,0,4.421,6.292,17.005,7.312c12.584,1.021,13.604,0,13.604,0l10.883,3.911
	c0,0,1.02-0.68,2.551-0.68l-12.414-5.782c0,0-5.271-6.292-14.284-8.672C16.353,31.8,12.951,32.99,12.951,32.99z"/>
<path display="none" fill="#FFFFFF" d="M13.292,34.861c0,0,2.381-11.904-2.041-16.325c0,0,3.571-13.434,0.85-18.536
	c0,0,7.993,2.21,10.373,10.883c0,0,0.34,9.523,4.591,13.774c0,0,3.741,5.782-0.51,11.053"/>
<path display="none" fill="#FFFFFF" d="M12.497,32.64c0,0-7.822-7.142-11.223,1.871l-1.148,0.893c0,0,0.718,0.268,1.318,0.467
	c0.383,0.723,2.891,2.381,6.122,1.871c0,0,4.421,6.292,17.005,7.312c12.584,1.02,13.604,0,13.604,0l12.353,2.442
	c0,0-0.449-2.15,1.082-2.15l-12.414-2.843c0,0-5.271-6.292-14.284-8.673S12.497,32.64,12.497,32.64z"/>
<path display="none" fill="#FFFFFF" d="M8.926,37.231c0,0-2.721,3.741-8.503,4.762c0,0,6.122,3.231,18.706,0.68"/>
<path display="none" fill="#FFFFFF" d="M13.141,32.83c0,0-7.822-7.142-11.223,1.871L0.77,35.593c0,0,0.718,0.268,1.318,0.468
	c0.382,0.723,2.891,2.381,6.122,1.871c0,0,4.421,6.292,17.005,7.312c12.584,1.02,13.604,0,13.604,0l14.114,7.142
	c0,0,1.531-5.442,3.061-5.442l-16.155-4.251c0,0-5.272-6.292-14.285-8.673S13.141,32.83,13.141,32.83z"/>
<path display="none" fill="#FFFFFF" d="M9.4,37.932c0,0,1.36,10.033-5.271,17.005c0,0,15.134,8.843,21.937-11.394"/>
<path display="none" fill="#FFFFFF" d="M12.646,32.99c0,0-7.823-7.143-11.224,1.871l-1.148,0.893c0,0,0.719,0.268,1.318,0.468
	c0.382,0.723,2.891,2.38,6.122,1.871c0,0,4.421,6.292,17.005,7.312c12.583,1.021,13.604,0,13.604,0l14.114,7.142
	c0,0,1.531-5.441,3.061-5.441l-16.155-4.251c0,0-5.271-6.292-14.284-8.672C16.047,31.8,12.646,32.99,12.646,32.99z"/>
<path display="none" fill="#FFFFFF" d="M12.646,35.031c0,0-2.041-7.822,6.972-7.652s8.672,4.421,8.672,4.421l2.041,6.972"/>
<path display="none" fill="#FFFFFF" d="M15.877,42.003c0,0,1.19,6.632,1.36,9.523c0,0,9.523-1.701,12.244-8.503"/>
<path display="none" fill="#FFFFFF" d="M12.633,32.79c0,0-7.822-7.142-11.223,1.871l-1.148,0.893c0,0,0.718,0.268,1.318,0.468
	c0.382,0.723,2.891,2.381,6.122,1.871c0,0,4.422,6.292,17.005,7.312c12.584,1.021,13.604,0,13.604,0l17.053,4.204
	c0,0-1.408-2.503,0.122-2.503l-16.155-4.251c0,0-5.271-6.292-14.284-8.672S12.633,32.79,12.633,32.79z"/>
<path display="none" fill="#FFFFFF" d="M16.374,34.32c0,0-4.251-13.604,4.081-13.944c0,0,14.455-0.17,19.726-2.551
	c0,0,2.891,7.822-10.543,12.414c0,0,1.02,5.782,0,7.312"/>
<path fill="#FFFFFF" d="M12.371,32.812c0,0-7.822-7.142-11.223,1.871L0,35.576c0,0,0.718,0.268,1.318,0.468
	c0.383,0.723,2.891,2.381,6.122,1.871c0,0,4.421,6.292,17.005,7.312c12.584,1.021,13.604,0,13.604,0l17.053,4.204
	c0,0-1.408-3.972,0.122-3.972l-16.155-2.782c0,0-5.271-6.292-14.284-8.672C15.772,31.622,12.371,32.812,12.371,32.812z"/>
<path fill="#FFFFFF" d="M15.092,34.683c0,0,1.7-12.584,1.36-13.774c0,0,5.952-14.964,5.612-19.216c0,0,8.502-0.51,7.992,11.734
	c-0.51,12.244-2.041,20.916-1.021,23.807"/>
</svg>
