<?xml version="1.0" encoding="utf-8"?>
<!-- Generator: Adobe Illustrator 15.0.0, SVG Export Plug-In  -->
<!DOCTYPE svg PUBLIC "-//W3C//DTD SVG 1.1//EN" "http://www.w3.org/Graphics/SVG/1.1/DTD/svg11.dtd" [
	<!ENTITY ns_flows "http://ns.adobe.com/Flows/1.0/">
]>
<svg version="1.1"
	 xmlns="http://www.w3.org/2000/svg" xmlns:xlink="http://www.w3.org/1999/xlink" xmlns:a="http://ns.adobe.com/AdobeSVGViewerExtensions/3.0/"
	 x="0px" y="0px" width="24px" height="29px" viewBox="0 0 24 29" overflow="visible" enable-background="new 0 0 24 29"
	 xml:space="preserve">
<defs>
</defs>
<path fill="#FFFFFF" d="M12.855,2.28c0.42-0.299,0.779-0.658,1.198-1.018c0.898-0.658,1.737-0.898,2.755-1.078
	c1.558-0.299,4.372-0.42,5.33,1.139c0.479,0.719,1.139,1.137,1.318,2.035c0.239,0.959,0.419,2.037,0.299,2.994
	c-0.119,0.539-0.18,1.078-0.18,1.678c-0.06,0.539-0.299,0.898-0.419,1.438c-0.359,1.018-0.778,1.916-1.198,2.875
	c-0.18,0.539-0.479,0.898-0.658,1.377c-0.18,0.539-0.479,0.959-0.839,1.377c-0.719,1.078-1.258,2.217-2.036,3.295
	c-0.719,0.838-1.198,1.736-1.797,2.574c-0.599,0.898-1.258,1.738-1.736,2.637c-0.479,0.957-0.959,2.096-1.198,3.174
	c-0.239,0.898,0.06,2.156-1.019,2.516c-1.138,0.418-1.258-0.6-1.497-1.379c-0.18-0.479-0.12-0.957-0.239-1.436
	c-0.18-0.6-0.659-1.199-0.959-1.738c-0.958-1.617-2.036-3.113-3.294-4.551c-0.239-0.24-0.479-0.539-0.778-0.779
	c-0.12-0.119-0.239-0.18-0.359-0.238c-0.119-0.18-0.06-0.24-0.18-0.42c-0.479-0.479-0.838-0.898-1.197-1.377
	c-1.019-1.438-2.097-2.756-2.815-4.312c-0.359-0.838-0.838-1.857-0.898-2.695C0.398,9.767-0.2,8.39,0.099,7.79
	c0.061,0-0.06-0.479-0.06-0.539c-0.06-0.299-0.06-0.658,0.06-0.898c0.18-0.658,0.12-1.496,0.539-2.035
	C0.997,3.839,1.117,2.94,1.716,2.64C1.955,2.46,2.075,2.28,2.435,2.161c0.419-0.18,0.778-0.6,1.198-0.838
	c1.258-0.84,3.233-1.139,4.611-0.719c0.778,0.238,1.497,0.658,2.216,1.018c0.18,0.061,0.359,0.18,0.539,0.299
	c0.419,0.24,0.599,0.719,1.078,0.84C12.257,2.761,12.676,2.401,12.855,2.28z M15.371,19.351c0.359-0.719,0.958-1.559,1.438-2.156
	c0.778-0.959,1.438-1.918,2.036-2.936c0.3-0.479,0.539-0.898,0.719-1.377c0.24-0.42,0.419-0.779,0.599-1.139
	c0.539-0.957,0.959-2.035,1.258-3.113c0.539-1.797,1.139-4.553-0.658-5.869c-0.24-0.18-0.42-0.359-0.779-0.48
	c-0.479-0.18-1.018-0.18-1.557-0.18c-0.898-0.059-2.156,0.121-2.935,0.6c-0.419,0.299-2.097,1.438-1.856,1.916
	c0.479,0.959,1.078,1.797,1.377,2.814c0.42,1.199,0.6,2.217,0.479,3.475c0,0.6-0.12,1.197-0.239,1.736
	c-0.18,0.539-0.3,1.557-0.719,1.857c-0.24,0.18-0.24,0.299-0.539,0.359c-0.24,0.059-0.479,0.18-0.659,0.238
	c-0.479,0.18-0.898,0.359-1.378,0.301c-1.197-0.061-1.736-1.379-2.275-2.277c-0.898-1.676-0.778-3.473-0.3-5.27
	c0.239-1.018,0.659-1.916,1.138-2.875c0.3-0.539,0.061-0.719-0.359-1.078C9.801,3.538,9.382,3.3,8.963,3.12
	c-0.958-0.42-1.917-0.6-2.875-0.539C4.95,2.64,4.231,3.06,3.393,3.839C3.153,4.077,2.854,4.317,2.614,4.558
	c-0.239,0.418-0.3,0.896-0.479,1.377c-0.299,0.957-0.18,1.977-0.119,2.994c0.119,0.898,0.539,1.857,0.778,2.695
	c0.239,0.779,0.719,1.557,1.198,2.275c0.419,0.6,1.018,1.197,1.377,1.857c0.3,0.479,0.599,0.898,1.019,1.258
	c0.239,0.18,0.838,0.658,0.898,0.957c0,0.18,0.299,0.48,0.479,0.6c0.359,0.299,0.6,0.6,0.898,1.018
	c0.3,0.42,0.659,0.779,1.019,1.197c0.119,0.18,0.539,0.66,0.539,0.84c0,0.299,0.539,0.598,0.658,0.957
	c0.18,0.359,0.6,0.779,0.719,1.199c0.061,0.238,0.3,0.658,0.479,0.898c0.3,0.539,0.599-0.66,0.659-0.898
	C13.275,22.104,14.593,20.847,15.371,19.351z M10.819,10.187c-0.06,0.719,0.12,1.377,0.479,2.037
	c0.18,0.357,0.539,1.076,1.078,1.076c1.617,0,1.377-3.053,1.197-4.131c-0.18-0.779-0.359-1.438-0.778-2.156
	c-0.479-0.779-0.599-1.02-1.078-0.18C11.119,7.79,10.819,9.048,10.819,10.187z"/>
</svg>
