<?xml version="1.0" encoding="utf-8"?>
<!-- Generator: Adobe Illustrator 15.0.0, SVG Export Plug-In  -->
<!DOCTYPE svg PUBLIC "-//W3C//DTD SVG 1.1//EN" "http://www.w3.org/Graphics/SVG/1.1/DTD/svg11.dtd" [
	<!ENTITY ns_flows "http://ns.adobe.com/Flows/1.0/">
]>
<svg version="1.1"
	 xmlns="http://www.w3.org/2000/svg" xmlns:xlink="http://www.w3.org/1999/xlink" xmlns:a="http://ns.adobe.com/AdobeSVGViewerExtensions/3.0/"
	 x="0px" y="0px" width="391px" height="173px" viewBox="0 0 391 173" overflow="visible" enable-background="new 0 0 391 173"
	 xml:space="preserve">
<defs>
</defs>
<path d="M108.709,78.387c-0.454,0-0.726-0.363-0.998-0.635c-0.635-0.544-1.36-0.998-2.086-1.36c-0.907-0.544-1.632-1.088-2.72-1.36
	c-0.907-0.272-1.723-0.635-2.63-0.816c-1.632-0.272-3.265-0.453-4.897-0.181c-1.36,0.09-3.083,0.272-4.353,0.998
	c-0.544,0.362-1.451,0.362-2.176,0.635c-0.998,0.362-1.995,0.816-2.902,1.27c-1.451,0.816-2.539,1.995-3.809,2.811l0.726,1.451
	c0.272,0.635,1.088,1.542,1.088,2.267c0,0.182,0.182,1.179,0.454,1.179c0.363,1.088,0.998,2.448,0.998,3.718
	c0,0.907,0.272,1.904,0.272,2.993c0,1.542-0.091,3.083-0.544,4.443c0,0.907-0.726,2.176-0.998,2.993
	c-0.454,0.998-0.907,1.995-1.632,2.902l-1.632,2.085c-0.454,0.454-1.542,1.179-1.723,1.814c-0.09,0.181-0.453,0.181-0.453,0.363
	c0,0.544-1.27,0.635-1.542,1.27l-1.542,1.179c0,0.272,0.272,0.544,0.272,0.816c0.272,0.725,0.726,1.27,1.088,1.995
	c0.635,1.179,0.544,2.358,0.816,3.627c0.635,2.63-0.272,4.988-0.816,7.345c-0.091,0.635-0.363,1.179-0.363,1.814
	c0.635,0.272,1.36-0.182,1.995-0.091c1.179-0.816,2.721-1.088,3.899-1.904c0.726-0.363,1.179-1.088,1.813-1.451
	c0.091-0.09,0.726-0.453,0.726-0.453c0.181-0.363,0.816-0.907,1.179-1.27c0.454-0.454,2.086-1.814,2.63-0.635
	c0.544,0.998,0.363,1.813-0.363,2.539c-0.998,1.27-2.539,2.448-3.899,3.265c-1.36,0.816-2.72,1.813-4.353,2.267
	c-0.544,0.181-0.907,0.544-1.451,0.635c-0.453,0.181-0.907,0.272-1.27,0.363c-0.544,0.09-0.725,0.362-1.27,0.272
	c-0.816,0-1.179,0-1.723,0.635c-0.454,0.544-0.816,1.27-1.179,1.813c-0.272,0.635-0.907,0.998-1.36,1.451
	c-1.088,1.451-2.357,2.811-3.99,3.899c-1.179,0.816-2.539,1.36-3.809,2.085c-0.272,0.182-1.36,0.272-1.542,0.544
	c0-0.09,0.182-0.181,0.091-0.272c-0.181-0.181-0.544,0.363-0.635,0.454c-0.181,0.181-0.453,0.091-0.635,0.091
	c-0.363,0.362-0.816-0.363-0.998-0.182c-0.181,0.182-0.091,0.363-0.272,0.454c-1.179,0.725-2.267,0.453-3.537,0.453
	c-1.451,0-3.174-0.635-4.081-1.723c-0.726-0.907-1.36-2.267-0.998-3.355c0-0.816,0.181-2.085,0.726-2.63
	c0.181-0.363,0.635-0.726,0.907-0.907c0.09-0.181,0.272-0.091,0.363-0.272c0.272-0.272,0.362-0.272,0.725-0.454
	c0.363-0.181,0.091-0.272,0.635-0.363l0.907-0.272c0.453-0.363,1.088-0.453,1.451-0.726c0.181-0.181,1.542-0.725,1.813-0.725
	c0.454-0.182,1.088-0.182,1.632-0.272c0.635-0.091,1.088-0.454,1.632-0.635c1.088-0.272,2.177-0.182,3.174-0.544
	c0.907-0.453,2.267-0.272,3.174-0.453c0.725-0.091,1.36-0.272,2.085-0.272c0.907,0,1.995,0,2.449-0.907
	c0.362-0.725,0.635-1.542,0.816-2.267c0.181-0.907,0.544-1.813,0.726-2.72c0.453-1.451,0.453-3.174,0.272-4.716
	c0-0.272-0.091-0.725-0.182-0.997c0-0.272-0.362-0.454-0.362-0.726c0-0.454-0.635-1.179-0.816-1.632
	c-0.181-0.363-0.544-1.088-1.088-1.179c-0.453,0-0.907,0.544-1.36,0.726c-0.272,0.272-0.998,0.363-1.27,0.454
	c-1.088,0.453-2.358,0.363-3.355-0.182c-0.363,0-1.632-0.907-1.904-1.179c-0.816-0.726-0.907-2.358-0.816-3.446
	c0.09-0.816,0.816-1.632,1.27-2.267c0.544-0.726,1.813-1.088,2.72-0.998c0.816,0.091,1.451,0.091,2.176,0.363
	c0.635,0.181,1.088,0.544,1.632,0.907c0.635,0.272,0.998,0.635,1.451,1.27c0.363,0.363,0.635,0.454,1.088,0
	c0.454-0.454,1.179-0.816,1.723-1.179c0-0.091,1.36-1.088,1.542-1.27c0.182-0.363,0.907-1.088,1.27-1.451
	c0.635-0.726,1.27-1.36,1.904-2.176c0.363-0.454,0.454-0.998,0.726-1.542c0.272-0.454,0.635-1.179,0.635-1.814
	c0.635-1.451,0.816-3.174,0.635-4.715c0-1.36,0-2.721-0.363-4.081c0-0.635-0.544-1.179-0.635-1.723
	c-0.272-0.816-0.544-1.632-0.998-2.358c-0.181-0.363-0.453-1.27-0.816-1.36c-0.726,0.182-1.179,0.635-1.632,1.179
	c-1.088,1.088-1.995,2.448-2.993,3.627c-0.272,0.454-0.725,0.635-0.998,0.998c-0.272,0.454-0.725,0.816-0.997,1.36
	c-0.272,0.454-0.544,0.726-0.907,1.179l-1.179,1.813c-0.181,0.272-0.272,0.726-0.454,0.907c0,0.272-0.453,0.816-0.635,0.998
	c-0.362,0.363-0.635,0.907-0.907,1.451c-0.091,0.363-0.635,0.907-0.907,1.27c-0.272,0.453-1.451,1.813-1.27,2.176l-0.182-0.091
	c-0.272,0-1.36,2.086-1.632,2.448l-1.632,2.449c-1.088,1.542-2.177,3.083-3.355,4.625c-0.181,0.181-0.454,0.725-0.635,0.997
	c0,0.182-0.635,1.27-0.726,1.27c0,0.091-0.363,0.544-0.453,0.726l-0.454,0.635c-0.544,0.363-0.726,1.088-1.179,1.632
	c-0.544,0.454-0.816,1.36-1.27,1.904l-1.179,1.542c-0.907,1.179-1.904,2.357-2.72,3.627c-0.363,0.544-0.635,1.088-1.27,1.451
	c-0.363,0.272-0.635,0.635-0.907,0.907c-0.181,0.181-0.362,0.181-0.362,0.454c-0.182,0.181-0.363,0.453-0.454,0.725
	c-0.272,0.363-0.454,0.363-0.816,0.635c-0.998,0.907-1.905,1.995-2.902,2.812l-1.27,1.088c-0.362,0.272-1.36,1.36-1.904,1.36
	c0,0.272-0.725,0.635-0.816,0.726c-0.363,0.181-2.086,0.907-2.086,1.179c-0.453,0.182-0.635,0.544-0.998,0.726l-0.907,0.453
	c-0.272,0-0.725,0.454-0.907,0.544c-0.726,0.453-1.451,0.726-2.176,1.179c-0.635,0.363-1.36,0.726-2.086,0.998l-2.72,1.088
	c-0.816,0.272-1.632,0.453-2.539,0.635c-4.353,0.998-8.796,1.632-13.331,0.907c-0.907-0.091-1.995-0.182-2.902-0.544
	c-0.363,0-0.726-0.363-1.179-0.363c-0.635-0.182-1.27-0.726-1.814-0.998c-0.544-0.272-1.542-0.544-1.904-0.998
	c-0.544-0.726-1.36-0.998-1.995-1.723c-0.453-0.544-1.632-1.723-1.723-2.539c0-0.272-0.454-1.632-0.726-1.723
	c-0.091-0.09-0.635-1.088-0.726-1.36c-0.363-0.907,0-2.086,0-3.083c0-3.809,2.267-7.073,4.988-9.25c0-0.272,0.363-0.182,0.453-0.363
	c0.182-0.363,0.726-0.635,0.998-0.816c0.454-0.272,0.907-0.635,1.451-0.816c0.181-0.181,0-0.726-0.091-0.907
	c0-0.182-0.181-1.451-0.544-1.451c0-0.362-0.091-0.907-0.182-1.27c-0.453-1.723-0.363-3.718-0.09-5.441
	c0.09-1.27,0.181-2.72,0.453-3.899c0.272-0.816,0.635-1.542,0.907-2.267c0.544-1.542,1.179-2.992,1.814-4.443
	c0.363-0.726,0.725-1.451,1.179-2.176c0.182-0.363,0.998-1.179,0.998-1.632c0.272-0.363,0.544-0.726,0.907-1.088
	c0.635-0.635,0.816-1.632,1.632-2.176c0.454-0.544,0.907-1.36,1.542-1.995c0-0.272,0.363-0.363,0.454-0.453
	c0.272-0.363,0.363-0.816,0.726-1.179c0.453-0.544,1.179-0.907,1.723-1.36c0.363-0.363,0.544-0.726,0.998-1.088
	c0.454,0,0.816-0.726,1.27-0.907l1.088-0.907c1.088-0.726,2.176-1.723,3.355-2.267c0.998-0.544,1.814-1.36,2.812-1.723
	c1.27-0.544,2.448-1.36,3.718-1.904c2.267-1.179,4.897-1.904,7.164-2.811c3.627-1.542,7.799-1.995,11.607-2.63
	c3.627-0.726,7.799-0.454,11.607,0.363c0.726,0.181,1.542,0.181,2.176,0.272c0.272,0,0.907,0.181,1.088,0.363
	c0.363,0.272,1.088,0.362,1.542,0.453c0.454,0.091,1.088,0.454,1.451,0.454c0,0,0.907,0.363,1.088,0.544l2.176,0.998
	c0.182,0.272,0.635,0.272,0.907,0.454c0.363,0.181,0.453,0.816,0.816,0.907c0.998,0.363,1.904,1.542,2.811,2.085
	c0.907,0.635,1.451,1.088,2.267,1.814c0.363,0.363,0.454,0.544,0.998,0.363c0.635-0.363,1.27-0.907,1.814-1.27
	c0.09-0.09,1.632-0.997,1.632-0.997c0,0.09-0.091-0.272-0.091-0.182c0.363,0,1.723-0.635,1.995-0.907
	c0.725-0.726,2.085-0.816,2.902-1.27c0.907-0.544,2.176-0.816,3.355-0.998c1.723-0.363,3.265-0.726,5.079-0.544
	c2.085,0.181,3.99,0.09,5.985,0.907c0.816,0.363,2.358,0.544,3.083,1.27c0.363,0.363,0.907,0.544,1.27,0.816
	c0.272,0.091,0.726,0.544,1.088,0.544c0.091,0.09,1.542,1.088,1.542,1.27C110.523,77.208,109.888,78.115,108.709,78.387z
	 M73.071,75.938c-1.36-1.179-2.902-2.449-4.715-2.811c-0.726-0.091-1.451-0.544-2.177-0.635c-0.453-0.09-0.907-0.362-1.36-0.453
	c-0.544-0.091-1.179-0.091-1.723-0.272c-0.544-0.272-1.451-0.363-2.086-0.454c-1.813,0-3.627-0.453-5.441-0.453
	c-2.448,0-4.806,0.544-7.164,0.907c-0.726,0-1.36,0.181-2.086,0.363c-0.181,0.09-1.36,0.181-1.542,0.362
	c-0.272,0-0.726,0.272-1.088,0.363c-0.453,0.091-0.907,0.091-1.36,0.272c-1.088,0.272-2.085,0.907-3.264,1.088
	c-0.635,0.182-0.907,0-1.451,0.363c-0.635,0.454-1.451,0.816-2.267,1.088l-1.995,0.998c-1.451,0.816-2.992,1.36-4.353,2.267
	l-3.083,2.085c-1.088,0.726-1.995,1.542-2.992,2.358c-0.544,0.453-1.088,0.816-1.632,1.36c-0.544,0.544-1.088,1.27-1.632,1.632
	c-0.454,0.272-0.907,1.088-1.36,1.632c-0.454,0.635-0.998,1.179-1.542,1.814c-0.544,0.726-1.088,1.36-1.542,2.176l-1.27,2.086
	c0,0.544-0.635,0.997-0.635,1.451c-0.181,0.363-0.544,0.544-0.635,0.998c-0.09,0.272-0.181,0.726-0.362,0.998
	c-0.454,0.635-0.816,1.632-1.088,2.448c-0.363,0.816-0.726,1.723-0.816,2.721c0,0.272,0.091,0.816-0.09,1.179
	c-0.272,0.544-0.091,1.179-0.182,1.904c-0.09,0.544-0.544,1.814-0.272,2.267c0.182,0.454,0.091,1.088,0.182,1.632
	c0,0.182,0.181,0.635,0.181,0.907s0.181,0.635,0.181,0.907c0.182,0.725,0.454,1.088,1.179,1.088c1.088,0,2.085-0.363,3.174-0.363
	c0.907,0,1.542,0.454,2.358,0.544c0.816,0.09,2.902,1.088,2.539,2.176c-0.272,1.179-1.542,1.904-2.721,1.179
	c-0.272-0.181-0.816-0.453-0.998-0.635c-0.635,0-1.088-0.453-1.813-0.363c-0.635,0.091-1.27,0.363-1.904,0.363
	c-0.272,0.363,0.453,1.179,0.453,1.632c0.091,0.182,0.544,0.363,0.635,0.635c0.182,0.544,1.27,1.27,1.632,1.632
	c0.363,0.272,1.088,0.182,1.27,0.544c0.182,0.454,0.816,0.272,1.088,0.544c0.544,0,1.27,0.363,1.813,0.453
	c0.726,0.182,1.542,0.454,2.267,0.544c0.998,0,1.995-0.091,2.993-0.091c0.726,0,1.542-0.272,2.176-0.454
	c0.544-0.272,0.998-0.544,1.542-0.725c0.272-0.182,0.544-0.363,0.725-0.635c0.363,0,0.726-0.182,0.998-0.363
	c1.904-0.635,3.718-2.177,5.351-3.446c1.904-1.451,3.899-3.083,5.441-4.806c0-0.453,1.088-0.907,1.27-1.36
	c0.272-0.544,0.816-1.088,1.179-1.451c0-0.363,1.27-2.176,1.451-2.176c0.272-0.454,0.725-0.816,0.816-1.36
	c0.091-0.091,0.363-0.091,0.363-0.363c0.998-0.998,1.451-2.811,2.086-4.081c0.725-1.27,1.451-2.358,1.813-3.718
	c0.454-1.36,0.907-2.993,0.998-4.353c0-0.635-0.182-0.998-0.272-1.542c0-0.272,0.09-0.635-0.091-0.907l-0.544-1.088l-0.907-0.907
	c-1.179-0.997-2.629-1.27-4.171-1.088c-1.451,0.091-2.539,0.544-3.809,0.998c-0.453,0.181-0.998,0.816-1.451,0.816
	c0,0.182-0.998,0.816-1.179,0.998c-0.544,0.454-1.088,0.726-1.632,1.179c-2.085,1.813-3.899,3.899-5.35,6.166
	c-0.454,0.998-1.179,1.904-1.632,2.812c-0.635,0.998-0.907,2.085-1.27,3.174c-0.181,0.453-0.363,0.907-0.363,1.36
	c0,0.816,0.091,1.813,0.091,2.72c0,1.088,0.272,3.083-1.632,2.721c-1.36-0.363-1.27-1.904-1.36-3.083
	c-0.091-1.27,0.091-2.811,0.544-4.081c0-1.27,0.907-2.811,1.542-3.899c0.363-0.726,0.635-1.451,1.088-2.176
	c0.363-0.635,0.907-1.27,1.27-1.814c0.182-0.362,0.454-0.635,0.726-0.816c0.363-0.272,0.272-0.454,0.454-0.816
	c0.272-0.453,0.725-0.816,0.998-1.088c1.179-1.179,2.085-2.358,3.265-3.265c0.362-0.363,0.725-0.907,1.179-1.179
	c0.181-0.182,0.635-0.363,0.816-0.544l1.179-0.816c1.632-1.36,4.171-1.814,5.985-2.358c0.998-0.363,2.267-0.181,3.265,0
	c0.726,0.091,1.632,0.726,2.267,0.726c0,0.272,0.726,0.635,0.907,0.726l1.088,1.088c0.635,0.635,0.998,1.36,1.27,2.177l0.544,2.448
	c0.454,1.542-0.272,3.355-0.544,4.897c-0.272,1.813-1.27,3.446-1.995,5.078c-0.454,0.816-1.088,1.542-1.451,2.358
	c-0.272,0.453-0.907,1.36-0.907,1.904c-0.272,0.272-0.272,0.635-0.453,0.907l-0.454,0.363c-0.453,0.453-0.635,0.998-0.998,1.451
	c-0.635,1.088-1.36,1.995-2.085,2.993c-0.454,0.635-1.179,1.088-1.542,1.723c-0.181,0.181-0.907,1.179-1.27,1.179
	c-0.362,0-1.179,1.36-1.632,1.632c-0.816,0.544-1.451,1.451-2.267,2.176c-0.453,0.454-1.27,0.544-1.632,1.088
	c-0.182,0.272-0.363,0.453-0.635,0.635c-0.544,0.363-0.998,0.726-1.632,1.088l-1.905,1.179c-0.816,0.363-1.632,0.453-2.357,1.088
	c-0.363,0.363-1.179,0.635-1.632,0.816c-0.907,0.272-1.814,0.544-2.721,0.726c-1.088,0-1.995,0.725-3.174,0.453
	c-0.635-0.272-1.36-0.09-1.995-0.272c-0.725-0.272-1.451-0.272-2.176-0.453c-1.36-0.272-2.72-0.816-3.809-1.542
	c-0.454-0.272-0.998-0.544-1.36-0.816c-0.363-0.454-0.907-0.635-1.179-1.179c-0.182-0.454-0.635-0.816-0.907-1.27
	c-0.816-0.997-1.451-2.72-2.902-1.27c-1.723,1.723-3.627,3.174-4.171,5.713c-0.182,0.816-0.544,2.811-0.363,3.627l0.272,0.998
	c0.091,0.363,0.181,0.635,0.181,0.998c0.272,0.182,0.363,0.454,0.454,0.726c0,1.179,1.995,2.448,2.72,3.174
	c0.454,0.454,0.998,0.726,1.451,1.179c1.632,1.632,4.443,1.632,6.62,2.086c0.635,0.181,1.814,0.091,2.449,0.091
	c0.453-0.272,0.816-0.091,1.27-0.091c0.453,0,0.907-0.272,1.36-0.181c0.544,0.09,0.725-0.272,1.27-0.272h0.816
	c1.36-0.181,2.811-0.453,4.171-0.816c0.907,0,1.723-0.907,2.63-0.907c0.635,0,1.995-0.635,2.539-0.907l1.632-0.816
	c0.998-0.635,2.63-0.998,3.265-1.995c0.544,0,0.816-0.725,1.27-0.725c0.272,0,0.454-0.091,0.635-0.272
	c0.272-0.362,0.726-0.453,1.088-0.635c0.544-0.181,0.998-0.635,1.36-1.088c0.453-0.635,1.27-1.088,1.904-1.632
	c0.181-0.091,0.635-0.544,0.816-0.544s1.179-1.088,1.27-1.27c0.544-0.635,1.088-1.179,1.723-1.723
	c0.363-0.454,0.816-1.36,1.27-1.632c0.453-0.182,0.635-0.816,1.27-0.998c0.091-0.091,0.181-0.363,0.272-0.635
	c1.542-2.176,3.355-4.353,4.806-6.529c1.179-1.723,2.267-3.627,3.537-5.26c0-0.362,0.544-0.907,0.816-1.179
	c0.635-0.635,0.998-1.179,1.451-1.995c0.182-0.181,1.904-3.083,2.086-3.083c0.363,0,0.907-1.451,1.088-1.723
	c0.363-0.363,0.998-0.907,0.998-1.451c0.272-0.363,0.726-0.816,0.998-1.36c0.272-0.635,0.363-0.635,0.907-1.179
	c0.363-0.454,0.454-0.907,0.816-1.36c0.544-0.726,0.907-1.632,1.36-2.358c0.09-0.091,0.453-0.635,0.544-0.635
	s0.181-0.544,0.272-0.635l1.632-2.176c0.181-0.363,0.363-0.635,0.635-0.907c0.181-0.091,0.454-0.726,0.544-0.726
	c0-0.363,1.088-1.36,1.36-1.632c0.544-0.454,1.27-0.998,1.542-1.542c0.454-0.544,0.907-1.27,1.451-1.814
	c0.091,0.091,1.451-1.36,1.542-1.813C76.517,78.024,74.522,77.117,73.071,75.938z M70.804,128.625
	c-0.091-0.181-0.544-0.09-0.726-0.09l-2.357,0.272L65,129.169l-3.265,0.635c-0.09,0-0.998,0.09-0.998,0.181
	c0,0.635-1.723,0.544-2.085,0.635c-0.635,0.182-1.27,0.816-1.904,1.088c-1.36,0.544-3.265,1.632-2.177,3.355
	c0.091,0.272,1.36,0.998,1.36,0.998c0.182,0,0.907,0.091,0.998,0.182c0.454,0,0.635,0.272,1.088,0.09
	c0.453-0.09,0.998-0.272,1.451-0.09c0-0.454,3.355-1.088,3.446-0.998c0.181-0.454,0.998-0.726,1.451-0.998
	c0.544,0,1.632-0.907,2.086-1.179l0.907-0.726c0.181,0,0.453-0.272,0.635-0.363l0.363-0.363c0-0.363,0.363-0.272,0.544-0.544
	l1.813-2.086C70.713,128.897,71.076,128.716,70.804,128.625z M66.813,107.859c1.179,1.179,2.902,1.088,4.081-0.091
	C70.169,106.589,66.36,105.41,66.813,107.859z"/>
<path d="M93.652,114.207c-0.182,0.544-1.088,0.635-1.179,1.179c-0.091,0.454-0.907,1.27-1.27,1.632
	c-0.181,0.363-0.635,1.36-0.907,1.542c-0.635,0.453-0.998,1.723-1.36,2.357c-0.272,0.544-0.635,1.36-0.998,1.723
	c-1.723,3.083-2.993,6.257-4.171,9.612c-0.635,1.813-1.542,6.801,1.632,6.801c1.27,0,2.63,0.635,2.267,2.176
	c-0.272,1.088-1.632,1.451-2.63,1.088c-1.179-0.363-1.995-0.544-2.992-1.36c-0.635-0.453-0.907-1.088-1.27-1.723
	c-0.997-1.723-0.725-3.809-0.453-5.713c0.181-1.632,0.635-3.718,1.542-5.078c0.091-0.363,0.091-0.726,0.272-1.088
	c0.091-0.181,0.363-0.181,0.363-0.453c0.091-0.272,0.091-0.726,0.272-0.998c0.182-0.363,0.363-0.544,0.363-0.998
	c0.091-0.272,0.454-0.363,0.454-0.726c0-0.181,0.363-0.907,0.544-0.907c0.454-0.454,0.726-1.179,0.907-1.813
	c0.272-0.998,1.179-2.086,1.723-2.993c0.453-0.726,0.816-1.542,1.36-2.176c1.27-1.542,2.176-4.716,4.896-3.899
	C93.471,112.846,93.833,113.572,93.652,114.207z M100,105.138c0,0.182,0,0.272,0.091,0.454c0.181,0.544,0.09,1.088-0.182,1.813
	c-0.363,0.544-0.544,0.998-1.36,1.36c-1.179,0.544-1.995,0.635-2.72-0.091c-0.454-0.363-0.816-0.725-0.635-1.723
	c0.09-0.726,0.635-1.723,1.088-2.267c0.363-0.544,0.454-0.544,0.907-0.907c0.09-0.09,0.635-0.272,0.907-0.272
	C99.184,103.416,99.637,104.141,100,105.138z"/>
<path d="M133.007,85.097c-0.363,0.726-0.544,1.451-0.816,2.177c-0.363,0.816-0.635,1.632-1.179,2.357
	c-0.544,0.726-0.816,1.542-1.36,2.267c-0.362,0.635-0.725,1.088-1.179,1.542c0,0.726-0.726,1.088-1.088,1.542
	c-0.453,0.635-0.725,1.27-1.179,1.904c-0.363,0.453-0.816,0.635-1.179,1.088c-0.182,0.182,0,0.454-0.182,0.635l-0.363,0.363
	c-0.362,0.363-0.453,0.726-0.907,0.998c-1.27,0.726-1.904,2.358-2.992,3.355c-1.179,0.998-1.995,2.358-3.355,3.265
	c-0.363,0.181-0.635,0.453-0.907,0.725c-0.272,0.272-0.272,0.635-0.454,0.816c-0.272,0.272-0.544,0.272-0.816,0.635
	c-0.454,0.454-0.998,0.816-1.542,1.27c-1.995,1.451-3.627,3.446-5.622,4.897c-1.179,0.544-1.995,1.632-3.083,2.358
	c-0.453,0.272-1.36,1.088-1.723,1.088c0,0.726-1.814,1.995-2.176,2.449c-0.726,0.816-0.816,1.632-1.27,2.539
	c0,0.181-0.635,0.998-0.816,1.179c-0.816,1.632-1.36,3.355-1.904,5.078c-0.182,0.726-0.272,1.451-0.635,2.086
	c-0.272,0.544-0.091,1.088-0.272,1.451c-0.454,0.998-0.091,2.267-0.272,3.265c-0.091,0.816,0.362,1.814,0.816,2.358
	c0.635,0.816,1.36,0.726,2.267,0.907c1.451,0.363,1.27,2.358-0.091,2.721c-1.632,0.453-3.355-0.635-4.262-1.814
	c-0.726-0.907-1.542-2.448-1.542-3.537c-0.09-0.363-0.09-1.451-0.09-1.813c0.181-0.454-0.091-0.816,0.181-1.27
	c0.272-0.363,0.091-1.088,0.181-1.542c0.182-0.454,0.272-0.907,0.363-1.36c0.182-1.632,0.998-3.355,1.542-4.897
	c1.179-3.718,3.174-6.982,4.987-10.429c0.454-0.907,0.998-1.813,1.542-2.63c0.454-0.635,1.088-1.27,1.27-1.995
	c0.182-0.635,0.544-1.088,0.816-1.723l0.726-1.179c0.181-0.272,0.453-0.544,0.544-0.816c0.091-0.363,0.363-0.363,0.544-0.635
	c0.363-0.544,0.635-1.632,1.179-1.995c0.362-0.181,0.453-1.088,0.816-1.451c0.272-0.544,0.726-0.816,0.998-1.36
	c0.726-1.088,1.27-2.267,1.904-3.446c0.544-0.816,1.27-1.542,1.813-2.358c0.363-0.726,0.816-1.542,1.36-2.176
	c2.811-3.446,5.169-7.073,8.252-10.157c1.27-1.27,2.72-2.63,4.171-3.718c1.179-0.816,3.083-1.451,4.534-1.27
	c0.635,0.091,1.904,0.363,2.176,0.907c0.544,0.816,0.635,1.27,0.635,2.176C133.551,83.012,133.46,84.1,133.007,85.097z
	 M130.468,83.103c0.091-0.998-0.272-1.179-1.179-1.179c-0.635,0.091-1.088,0.363-1.542,0.726c-1.723,1.179-3.174,2.721-4.625,4.171
	c-1.36,1.36-2.539,2.811-3.718,4.353c-0.453,0.635-1.088,0.997-1.36,1.723c-0.09,0.363-0.453,0.726-0.635,1.179l-0.635,0.816
	c-0.907,0.907-1.813,2.086-2.448,3.265c-0.454,0.726-1.179,1.451-1.542,2.176c-1.088,1.451-1.814,3.265-2.812,4.715
	c-0.453,0.454-0.816,1.088-1.179,1.814l-0.998,1.723l-0.544,0.635c-0.091,0.09-0.091,0.181,0,0.272l-0.363,0.181
	c-0.272,0.363-0.272,0.635-0.544,0.998c-0.182,0.181-0.454,0.998-0.635,0.998c-0.544,0.181-1.179,1.813-1.27,2.267
	c1.179-0.544,2.357-1.813,3.446-2.63c0.998-0.816,2.085-1.542,3.083-2.448l2.721-2.63l1.542-1.36
	c0.363-0.363,1.36-0.998,1.542-1.451c0.454-0.816,1.27-1.27,1.723-1.995c0.544-0.726,1.36-1.542,2.086-2.267
	c1.36-1.27,2.357-2.721,3.446-4.171l2.176-2.993l1.904-3.355c0.272-0.09,0.272-0.362,0.544-0.362c0-0.363,0.09-0.726,0.453-0.907
	C129.561,85.914,130.286,84.553,130.468,83.103z"/>
<path d="M150.235,85.097c-0.363,0.726-0.544,1.451-0.816,2.177c-0.363,0.816-0.635,1.632-1.179,2.357
	c-0.544,0.726-0.816,1.542-1.36,2.267c-0.362,0.635-0.725,1.088-1.179,1.542c0,0.726-0.726,1.088-1.088,1.542
	c-0.453,0.635-0.725,1.27-1.179,1.904c-0.363,0.453-0.816,0.635-1.179,1.088c-0.182,0.182,0,0.454-0.182,0.635l-0.363,0.363
	c-0.362,0.363-0.453,0.726-0.907,0.998c-1.27,0.726-1.904,2.358-2.992,3.355c-1.179,0.998-1.995,2.358-3.355,3.265
	c-0.363,0.181-0.635,0.453-0.907,0.725c-0.272,0.272-0.272,0.635-0.454,0.816c-0.272,0.272-0.544,0.272-0.816,0.635
	c-0.454,0.454-0.998,0.816-1.542,1.27c-1.995,1.451-3.627,3.446-5.622,4.897c-1.179,0.544-1.995,1.632-3.083,2.358
	c-0.453,0.272-1.36,1.088-1.723,1.088c0,0.726-1.814,1.995-2.176,2.449c-0.726,0.816-0.816,1.632-1.27,2.539
	c0,0.181-0.635,0.998-0.816,1.179c-0.816,1.632-1.36,3.355-1.904,5.078c-0.181,0.726-0.272,1.451-0.635,2.086
	c-0.272,0.544-0.091,1.088-0.272,1.451c-0.454,0.998-0.091,2.267-0.272,3.265c-0.091,0.816,0.362,1.814,0.816,2.358
	c0.635,0.816,1.36,0.726,2.267,0.907c1.451,0.363,1.27,2.358-0.091,2.721c-1.632,0.453-3.355-0.635-4.262-1.814
	c-0.726-0.907-1.542-2.448-1.542-3.537c-0.09-0.363-0.09-1.451-0.09-1.813c0.181-0.454-0.091-0.816,0.181-1.27
	c0.272-0.363,0.091-1.088,0.181-1.542c0.182-0.454,0.272-0.907,0.363-1.36c0.182-1.632,0.998-3.355,1.542-4.897
	c1.179-3.718,3.174-6.982,4.987-10.429c0.454-0.907,0.998-1.813,1.542-2.63c0.454-0.635,1.088-1.27,1.27-1.995
	c0.182-0.635,0.544-1.088,0.816-1.723l0.726-1.179c0.181-0.272,0.453-0.544,0.544-0.816c0.091-0.363,0.363-0.363,0.544-0.635
	c0.363-0.544,0.635-1.632,1.179-1.995c0.362-0.181,0.453-1.088,0.816-1.451c0.272-0.544,0.726-0.816,0.998-1.36
	c0.726-1.088,1.27-2.267,1.904-3.446c0.544-0.816,1.27-1.542,1.813-2.358c0.363-0.726,0.816-1.542,1.36-2.176
	c2.811-3.446,5.169-7.073,8.252-10.157c1.27-1.27,2.72-2.63,4.171-3.718c1.179-0.816,3.083-1.451,4.534-1.27
	c0.635,0.091,1.904,0.363,2.176,0.907c0.544,0.816,0.635,1.27,0.635,2.176C150.779,83.012,150.688,84.1,150.235,85.097z
	 M147.696,83.103c0.091-0.998-0.272-1.179-1.179-1.179c-0.635,0.091-1.088,0.363-1.542,0.726c-1.723,1.179-3.174,2.721-4.625,4.171
	c-1.36,1.36-2.539,2.811-3.718,4.353c-0.453,0.635-1.088,0.997-1.36,1.723c-0.09,0.363-0.453,0.726-0.635,1.179l-0.635,0.816
	c-0.907,0.907-1.813,2.086-2.448,3.265c-0.454,0.726-1.179,1.451-1.542,2.176c-1.088,1.451-1.814,3.265-2.812,4.715
	c-0.453,0.454-0.816,1.088-1.179,1.814l-0.998,1.723l-0.544,0.635c-0.091,0.09-0.091,0.181,0,0.272l-0.363,0.181
	c-0.272,0.363-0.272,0.635-0.544,0.998c-0.182,0.181-0.454,0.998-0.635,0.998c-0.544,0.181-1.179,1.813-1.27,2.267
	c1.179-0.544,2.357-1.813,3.446-2.63c0.998-0.816,2.085-1.542,3.083-2.448l2.721-2.63l1.542-1.36
	c0.363-0.363,1.36-0.998,1.542-1.451c0.454-0.816,1.27-1.27,1.723-1.995c0.544-0.726,1.36-1.542,2.086-2.267
	c1.36-1.27,2.357-2.721,3.446-4.171l2.176-2.993l1.904-3.355c0.272-0.09,0.272-0.362,0.544-0.362c0-0.363,0.091-0.726,0.454-0.907
	C146.789,85.914,147.514,84.553,147.696,83.103z"/>
<path fill="#FFFFFF" d="M250.459,128.202c-0.248,0.868-0.371,1.736-0.496,2.728c-0.123,0.992-0.992,2.356-1.488,3.224
	c-0.992,1.364-1.24,2.728-2.604,3.844c-0.619,0.496-0.619,0.992-1.115,1.612c-0.373,0.496-0.992,0.744-1.488,1.24
	c-0.621,0.62-0.867,0.992-1.611,1.488c-1.117,0.496-1.984,1.612-3.225,2.231c-0.992,0.496-2.232,1.24-3.348,1.24
	c0,0.372-0.373,0.496-0.619,0.868c-0.373,0.744-0.496,1.488-0.621,2.232c-0.496,1.736-1.115,3.472-1.859,5.084
	c-0.62,1.612-1.488,2.976-2.48,4.339c-0.867,1.488-2.107,3.224-3.472,4.216c-0.372,0.372-0.62,0.992-1.116,1.116
	c-0.744,0.248-1.363,1.24-1.983,1.736c-0.744,0.744-1.735,1.24-2.604,1.736l-2.479,1.24c-0.991,0.62-2.604,1.736-3.72,1.736
	c-0.371,0-0.744,0.744-1.363,0.744c-0.621,0.372-1.488,0.248-2.108,0.496c-0.744,0-1.86,0.496-2.604,0.62
	c-0.371,0-0.619,0.124-0.991,0.124l-2.976,0.496c-1.86,0.496-4.216,0.124-6.076,0.124c-6.323-0.372-12.275-2.604-17.483-5.952
	c-0.124,0.124-0.124,0.124,0,0.248l-1.984-1.86l-2.356-2.108c-0.248-0.124-0.62-0.62-0.62-0.62c-0.248,0-0.372-0.62-0.496-0.744
	c-0.496-0.496-0.992-0.744-1.488-1.24c-0.744-0.496-1.612-1.86-2.108-2.728c-0.372-0.744-1.116-1.24-1.488-1.984
	c-0.248-0.744-0.62-1.364-0.868-1.984l-1.364-3.224l-1.488-3.844c-0.744-1.736-0.744-3.844-0.744-5.58
	c0-0.744-0.248-1.488-0.248-2.232c0-0.62,0.372-1.612-0.124-2.108c-0.868-0.868-2.232-1.612-3.224-2.355
	c-0.744-0.62-2.48-2.232-2.728-3.348c-0.248-0.992-1.488-2.232-1.984-3.224c-0.62-0.992-1.116-1.86-1.364-3.1
	c-0.62-2.479-1.116-4.463-0.744-7.067c0-1.612,0.124-3.472,0.496-5.083c0.62-3.844,2.728-7.068,4.587-10.167
	c0.372-0.372,0.496-0.992,0.992-1.364l1.116-1.116c0.62-0.992,1.364-1.612,2.356-2.232c0.744-0.496,1.364-1.612,2.356-1.984
	c0.372-0.124,0.744-0.496,1.24-0.744l1.612-1.116c0.372-0.248,0.248-1.984,0.248-2.48c0.124-1.488,0.62-3.1,0.744-4.587l0.992-3.968
	c0.248-0.992,0.62-1.736,0.992-2.604c0.372-0.62,1.116-1.24,1.364-1.86c0.124-0.496,0.372-1.24,0.868-1.736
	c0.496-0.372,0.62-1.364,1.116-1.612c0.992-0.62,1.612-1.736,2.356-2.355c2.728-1.86,5.456-4.216,8.68-4.836
	c1.24-0.496,2.48-0.62,3.844-0.868c1.488-0.248,4.092-0.248,5.828,0.124c1.116,0.248,2.108,0.248,2.976,0.744
	c0.744,0.372,1.488,0.248,2.232,0.744c0.62,0.496,1.24,0.992,1.984,1.364c0.867,0.372,1.736,1.364,2.355,2.108
	c0.496,0.62,1.859,1.364,2.232,1.984c0.123,0.372,2.355,0.372,2.852,0.496c1.115,0.372,2.107,0.372,3.224,0.868
	c1.612,0.62,4.34,1.984,5.331,3.348c0.869,0.868,2.604,1.612,1.984,3.224c-0.248,0.744-0.248,1.116-1.24,1.24
	c-0.992,0.248-1.363,0-1.983-0.744c-0.744-0.868-1.735-1.364-2.356-2.232c-0.371-0.124-0.496-0.124-0.867-0.124
	c-0.496,0.124-0.248-0.372-0.62-0.372c-0.868-0.372-3.72-2.108-4.464-0.62c-0.372,0.868,0,2.108,0,2.976
	c0,0.744-0.248,1.488-0.372,2.232c-0.124,1.116-0.248,1.612-0.743,2.604c-0.992,2.108-2.232,3.844-3.844,5.456
	c-1.984,2.108-4.465,2.728-7.192,3.224c-1.116,0.248-2.108,0.248-3.224,0.124c-1.116-0.124-1.736-0.62-2.728-0.992
	c-0.868-0.496-2.852-1.24-3.1-2.356c-0.124-0.496-0.62-0.496-0.62-0.868l-0.248-0.744c-0.372-0.744-0.868-1.488-0.992-2.356
	c-0.496-1.984,0.372-4.216,1.364-5.828c0.744-1.24,1.612-2.728,2.728-3.72c0.248-0.248,0.62-0.496,0.868-0.992
	s0.496-0.372,0.992-0.62c0.496-0.248,0.868-0.744,1.364-1.116c0.868-0.248,1.984-0.992,2.976-1.24c0.744-0.372,0.868,0,1.488-0.372
	c0.372-0.248,1.116-0.372,1.612-0.496c0.992,0,2.232-0.496,0.621-1.116c-1.117-0.992-2.977-1.736-4.216-2.108
	c-1.984-0.496-3.72-0.248-5.828-0.248c-0.992,0.124-3.224,0.496-4.34,1.24c-0.744,0-1.488,0.372-2.108,0.868
	c0,0.124-0.124,0.124-0.124,0.248c-1.364,0.496-2.48,1.984-3.596,2.728c-1.612,0.868-3.1,3.348-3.844,4.96
	c-0.62,0.744-1.488,1.984-1.736,2.852c-0.124,0.496-0.62,1.488-0.62,1.984c-0.124,0.372-0.496,0.62-0.496,1.116
	c-0.124,0.496-0.124,1.116-0.124,1.612c0.124,1.116-0.372,2.108-0.372,3.1c-0.124,1.488,0.992,1.364,2.231,1.116
	c3.596-0.744,8.804,1.984,8.804,5.952c0,2.108-0.372,3.844-1.86,5.332c-1.24,1.24-4.092,2.728-5.828,1.612
	c-0.372-0.124-0.868,0.124-1.116-0.248c-0.124-0.248-0.372-0.372-0.62-0.372c-0.744-0.372-1.24-1.116-1.86-1.612
	c-1.488-1.24-1.612-3.472-2.852-4.711c-1.984,0.372-2.976,2.108-4.712,2.976c-1.488,0.868-3.224,3.1-3.72,4.712
	c-0.496,1.116-1.488,1.86-1.736,3.1c-0.248,0.744-0.496,1.612-0.868,2.356c-0.248,0.744-0.496,0.992-0.496,1.86
	c0,0.372-0.372,0.868-0.372,1.24c0,0.62,0,1.24-0.124,1.86c0,2.231-0.372,4.092,0.248,6.323c0.248,1.116,0.868,2.604,1.612,3.348
	c0.868,1.488,1.86,3.472,3.472,4.34c-0.124,0.62,0.868,0.868,1.24,1.116c1.116,0.992,1.24-1.116,1.488-1.984
	c0.62-1.736,1.364-3.348,2.232-4.959c0.496-0.992,1.116-1.86,1.364-2.976c0.496-1.736,1.86-3.224,3.1-4.34
	c0.62-0.744,1.116-1.612,1.86-2.232c0.124-0.248,1.364-1.488,1.612-1.488c0-0.124,1.86-1.736,1.984-1.86
	c0.744-0.248,1.364-0.992,2.108-1.364c0.124-0.124,0.62,0.124,0.744-0.248c0.124-0.372,0.62-0.62,0.868-0.744
	c0.992-0.496,1.984-0.496,2.852-0.992c0.124,0,0.992-0.496,1.24-0.62c0.496-0.248,1.116-0.496,1.612-0.868
	c0.372-0.124,0.868-0.248,1.364-0.496c0.992-0.248,2.231-0.868,3.1-1.488l1.488-0.62c0.496-0.124,0.744-0.496,1.364-0.62
	c1.488-0.372,2.976-0.992,4.464-1.488c3.595-1.116,7.316-2.356,10.664-3.844c1.363-0.62,2.604-1.488,3.968-2.108l1.239-0.992
	c0.248-0.496,0.496-0.248,0.869-0.496c0.496-0.372,1.363-0.62,1.735-0.992c0.744-0.372,1.116-1.24,1.86-1.612
	c0.992-0.496,1.735-1.488,2.479-2.356c1.116-1.24,2.231-2.108,3.224-3.472l2.232-3.1c1.487-1.984,2.728-3.968,3.719-6.323
	c2.109-5.952,3.473-12.523,1.24-18.723c-0.248-0.868-0.619-1.612-1.115-2.356c-0.496-0.62-0.373-1.488-1.116-1.984
	c-0.62-0.496-0.868-1.24-1.488-1.86c-0.247-0.248-0.743-0.62-0.991-0.992c-0.869-1.736-2.977-1.984-4.092-3.472
	c-0.869-0.124-1.364-0.868-2.108-1.24c-1.116-0.372-2.231-0.372-3.348-0.744c-3.349-1.488-7.44-0.868-10.788,0.124
	c-2.727,0.868-5.331,2.976-7.066,5.332c-0.869,0.992-1.613,1.984-2.108,3.348c-0.496,1.364-0.496,2.108-2.232,2.356
	c-1.984,0.124-1.984-1.736-1.488-3.348c0.496-1.612,1.24-3.1,2.108-4.463c1.736-2.604,4.711-4.216,7.191-6.2
	c1.612-1.364,4.34-1.612,6.324-1.86c1.115-0.248,2.232-0.248,3.472-0.248c0.991-0.372,2.108-0.248,3.1,0
	c1.983,0.496,3.968,1.116,5.952,1.736c1.363,0.248,2.479,1.116,3.596,1.86c2.479,1.488,4.959,3.844,6.324,6.2
	c0.99,1.488,1.982,2.728,2.727,4.34c0.744,1.736,1.488,3.472,1.861,5.332c0.371,2.108,0.371,4.34,0.371,6.448
	s-0.619,3.968-0.744,5.952c-0.123,1.116-0.744,2.728-1.115,3.472c-0.373,1.364-0.869,2.604-1.488,3.968
	c-1.115,2.728-2.852,4.836-4.464,7.315c-0.62,0.992-1.239,2.232-2.231,2.976c-0.496,0.372-0.744,0.868-1.24,1.24
	c-0.496,0.62-1.488,0.992-1.859,1.612c-0.125,0.372-0.248,0.496-0.496,0.744c-1.365,1.364-2.604,2.604-4.217,3.596
	c-3.1,1.736-5.951,3.844-9.299,5.208c-1.116,0.372-2.355,0.744-3.348,1.364c-0.744,0.372-1.488,0.496-2.232,0.992
	c-0.744,0.62,0.248,2.232,0.372,2.976c0.248,1.116,0.248,2.232,0.248,3.348c0,1.984,0,3.72-0.248,5.456
	c-0.124,1.116-0.495,2.107-0.495,3.1c-0.621,1.116-1.117,2.232-1.488,3.472c-0.125,0.372-2.356,2.976-1.736,3.348
	c-0.867,0.372-1.488,1.736-2.108,2.356c-0.372,0.496-0.868,1.86-1.488,1.86c0,0.496-1.736,1.612-2.108,1.984
	c-1.116,1.116-2.356,1.86-3.72,2.728c-3.1,1.736-6.448,3.1-10.043,3.596c-1.736,0.248-3.596,0.496-5.332,0.496
	c-2.48,0.124-4.712-0.248-7.068-0.372c-0.744,0-1.24-0.248-1.364,0.62c0,0.372-0.124,0.744-0.124,1.116
	c0,0.992,0.124,1.984,0.372,2.976c0.124,1.116,0.496,2.232,0.992,3.348c0.372,0.992,0.744,2.108,1.24,3.224
	c0.248,0.372,0.868,1.24,0.868,1.612c-0.124,0.496,1.24,2.231,1.612,2.604c0.496,0.992,1.364,1.612,2.108,2.356
	c0.992,0.992,1.86,2.604,3.1,3.472c0.868,0.62,1.488,1.86,2.48,2.356c0.62,0.248,1.24,0.868,1.86,0.992
	c0.992,0.372,1.86,1.116,2.852,1.488l5.952,2.48c1.364,0.62,3.72,0.62,5.332,0.744c0.992,0,1.984,0.372,3.1,0.248l3.1-0.496
	c2.232-0.496,4.465-0.372,6.696-1.116c1.116-0.372,3.224-0.992,4.092-1.86c0.991-0.496,1.86-0.992,2.976-1.364
	c1.116-0.372,1.984-1.364,2.729-2.232c1.487-1.488,3.471-2.728,4.588-4.588c0.619-0.62,1.115-1.612,1.735-2.356
	c0.496-0.496,0.496-0.868,0.868-1.488c0.248-0.496,0.619-0.744,0.867-1.24c0.125-0.496,0-1.116,0.248-1.488
	c0-0.62,0.744-1.612,0.992-2.355c0.248-1.116-0.248-1.488-1.488-1.488c-1.115,0.124-2.107-0.372-3.348-0.248
	s-2.231-0.248-3.348-0.496c-0.867-0.248-1.24-0.248-2.107-0.744c-0.868-0.496-1.86-0.62-2.729-1.24
	c-1.115-0.868-3.1-1.488-3.844-2.728c-0.248-0.62-0.744-0.992-1.115-1.488c-0.868-0.744-1.364-1.86-1.86-2.852
	c-1.983-3.844-2.728-7.688-0.62-11.655c1.24-2.356,2.977-4.711,5.58-5.828c2.728-0.992,6.695-1.736,9.547-0.372
	c1.488,0.62,2.977,1.116,4.217,2.232c0.991,0.868,1.859,1.736,2.727,2.728c1.24,1.364,1.861,3.844,2.854,5.58
	c0.619,1.488,0.867,2.976,1.363,4.464c0.619,2.232,0,4.587,0.496,6.819c1.859-0.248,3.223-2.108,4.463-3.348
	c0.869-0.744,1.488-1.612,2.107-2.48c0.621-0.868,1.613-1.612,1.984-2.604c0.373-0.992,0.992-1.86,1.365-2.852
	c0.248-0.992,0.371-1.86,0.742-2.852c0.621-1.86,0.373-4.216-0.123-6.076c-0.619-3.224-2.107-6.695-4.836-8.679
	c-0.867-0.496-1.984-0.744-2.604-1.116c-0.992-0.62-2.107-0.62-3.1-0.744s-1.365-0.124-2.232,0.248c-0.867,0.372-3.1,0.868-3.596,0
	c-0.992-1.736-0.248-2.976,1.488-3.72c1.736-0.372,3.719-0.744,5.703-0.372c0.621,0.372,1.611,0.372,2.355,0.372
	c0.992,0.124,1.736,0.868,2.604,1.24c0.992,0.496,2.232,1.116,2.977,1.984l2.232,2.852c0.744,1.24,1.859,2.728,1.859,4.34
	c0.744,1.612,1.24,3.596,1.24,5.456C250.956,124.606,251.079,126.218,250.459,128.202z M170.856,134.649
	c0.496,0.124,1.116,0.372,1.488,0.248c1.364,0,2.728,0.496,4.216,0.372c0.496,0,1.364,0.248,1.86,0.124
	c0.372,0,0.744-0.248,1.24-0.248c1.86-0.124,4.339,0,6.076-0.868l3.1-0.992c0.868-0.372,1.612-1.116,2.604-1.364
	c0.744-0.372,1.612-0.992,2.232-1.612c0.496-0.248,1.24-0.868,1.612-1.24c0.992-0.992,1.736-1.736,2.48-2.852
	c0.868-1.364,1.736-2.48,2.479-3.968c0.62-0.992,1.116-1.984,1.612-2.976c0.248-0.62,0.496-0.744,0.496-1.488
	c0.124-0.62,0-1.364,0.248-1.984c0-0.62,0.372-1.116,0.372-1.86c-0.124-0.496-0.124-1.116-0.124-1.612l-0.372-3.348
	c-0.496-2.232-1.736-2.355-3.844-1.86c-1.736,0.496-3.596,1.116-5.208,2.108c-0.62,0.372-1.612,1.24-2.356,1.24
	c-0.496,0.248-0.992,0.248-1.488,0.372c-0.124,0.124-0.372,0.496-0.62,0.372c-0.124,0-1.364,0.62-1.736,0.744
	c-0.62,0.372-1.24,0.372-1.984,0.62c-1.364,0.868-2.356,1.736-3.844,2.604c-1.736,1.24-2.852,2.728-4.216,4.34
	c-1.116,1.116-2.108,2.108-2.976,3.472l-2.852,6.076c-0.62,1.24-0.992,2.604-1.24,3.968
	C169.988,134.029,169.864,134.277,170.856,134.649z M177.18,100.303c0.744,0.496,1.24,1.116,2.232,0.868
	c0.62-0.248,1.24-0.62,1.736-0.992c-0.124-0.744,0.372-1.612-0.124-2.108c-0.372-0.496-0.868-0.744-1.364-0.992
	c-1.364-0.62-2.976-0.62-4.464-0.248C174.824,98.195,176.312,99.559,177.18,100.303z M197.887,79.224
	c-0.62,0.248-1.736,1.364-2.232,1.364c-1.364,0-3.348,3.596-3.844,4.587c-1.116,2.232,0.496,5.208,2.728,5.828
	c0.992,0.248,1.86,0.744,3.1,0.62c0.62-0.124,1.364-0.372,2.108-0.372c0.868,0,1.984-0.992,2.604-1.24
	c0.124-0.372,0.62-0.372,0.62-0.868c0.868,0,1.735-1.984,2.231-2.604c0.496-0.744,0.621-1.736,0.992-2.48
	c0.496-1.116,0.248-2.728,0.372-4.092c-0.124-1.86-1.116-2.108-2.728-2.108C202.102,77.86,199.623,78.604,197.887,79.224z
	 M231.489,133.037c-0.372-1.24-0.992-2.48-1.488-3.72c-0.371-0.62-1.115-2.852-2.107-2.852c0-0.868-1.24-1.86-2.108-2.108
	c-0.868-0.372-1.735-1.488-2.728-1.364c-1.24,0.124-2.729-0.372-4.092-0.248c-0.992,0.124-1.859,0.248-2.729,0.744
	c-2.231,1.24-2.975,2.976-3.967,5.208c-0.992,2.356,0.619,5.704,1.983,7.564c0.868,1.24,1.86,2.231,2.976,3.1
	c2.108,1.488,4.465,2.852,7.191,2.728c1.117,0.744,2.604,0.124,3.844,0.372c1.117,0.248,2.604,0.248,3.721-0.248
	C232.729,139.361,232.233,135.765,231.489,133.037z"/>
<path d="M378.838,75.032c0.363-0.635,1.541-2.177,1.088-3.083c0-0.635-0.543-2.085-0.906-2.63c-0.182-0.272-1.088-1.632-1.359-1.632
	c-0.182,0-1.27-0.544-1.543-0.725c-0.453-0.272-0.725-0.816-1.27-0.907c-1.541-0.181-3.082-1.088-4.805-0.635
	c-1.18,0.272-2.449,0.091-3.537,0.726c-0.908,0.363-1.904,0.454-2.721,0.998c-0.545,0.454-0.998,0.635-1.633,0.907
	c-0.543,0.182-0.906,0.544-1.27,0.907c-0.543,0.544-0.816,0.907-1.451,1.36c-1.27,0.907-1.994,1.995-3.082,3.083
	c-0.092,0.09,0.906,1.36,0.996,1.813c0.092,0.454,0.908,2.086,1.27,2.358c0.545,1.088,1.18,2.811,1.18,4.081
	c0,0.272,0.271,0.544,0.271,0.816c0.182,0.816,0,1.723,0.182,2.539c0.271,1.088,0.271,2.267,0.092,3.355
	c-0.273,2.721-0.635,5.895-2.178,8.162c-0.725,1.088-1.27,2.448-2.176,3.446l-1.361,1.451c-0.996,0.998-2.539,2.357-3.988,2.902
	l-1.543,0.816c-1.178,0.816-2.629,0.998-3.898,1.27c-3.084,0.635-6.258,0.998-9.34,0.454c-0.182,0-1.18-0.363-1.271,0
	c-0.09,0.272-0.361,0.726-0.635,0.998c-0.271,0.544-0.906,0.907-1.088,1.542c-0.361,0.998-0.996,1.723-1.541,2.63
	c-0.271,0.544-0.816,2.085-1.359,2.358l-0.363,0.816c0,0.181-0.545,0.816-0.727,1.088c-0.09,0.272-0.18,0.362-0.453,0.635
	c-0.182,0.181-0.09,0.544-0.271,0.725c0,0.907-1.451,2.086-1.994,2.812c-0.363,0.544-0.545,1.088-0.908,1.542
	c-0.906,1.179-1.631,2.448-2.539,3.627c-0.725,0.816-1.088,1.904-1.904,2.72c-0.271,0.363-1.723,2.993-2.086,2.993
	c-0.453,0.635-0.996,1.723-1.631,2.358c-0.363,0.362-0.908,1.179-0.998,1.542c0,0.091-0.363,0.363-0.453,0.453l-0.635,0.907
	c-0.545,0.544-0.998,0.998-1.361,1.723c-0.271,0.726-0.996,0.998-1.451,1.632c-1.088,1.451-2.447,2.539-3.535,3.899
	c-0.545,0.635-1.451,1.27-1.904,1.995c-0.273,0.544-0.727,0.635-1.18,1.088l-0.725,0.907c-0.363,0.453-0.998,0.907-1.451,1.27
	l-1.27,1.088c-0.816,0.816-1.814,1.27-2.721,2.086c-1.18,0.998-2.721,1.632-4.172,2.358c-0.271,0.09-0.545,0.363-0.816,0.544
	c-0.543,0.363-1.27,0.272-1.812,0.454c-0.635,0.181-1.27,0.544-1.725,0.907c-0.361,0.181-0.996,0.09-1.449,0.181
	c-1.18,0.272-2.178,0.091-3.447,0.182c-1.27,0.09-2.268,0.09-3.537-0.182c-0.453-0.181-2.9-0.453-2.9-0.907
	c-1.543-0.635-3.447-1.088-4.717-2.267c-0.271-0.544-1.27-1.179-1.723-1.632c-0.635-0.454-1.178-1.632-1.633-2.267
	c-0.453-0.635-0.996-1.27-1.359-1.995c-0.363-0.453-0.271-0.998-0.545-1.451c-0.453-0.998-0.543-1.814-0.725-2.811
	c0-0.363-0.363-0.816-0.363-1.088s0.092-0.544,0.092-0.816c-0.092-0.816-0.182-1.632,0-2.448c0.09-0.816,0.09-1.723,0.271-2.539
	c0.271-1.179,0.725-2.267,1.18-3.355c0.18-0.363,0.18-0.816,0.361-1.088c0.363-0.635,0.816-1.179,1.27-1.814
	c0.363-0.544,0.727-1.179,1.27-1.723c0.273-0.272,0.727-1.36,1.18-1.36c0-0.091,0.816-0.816,0.816-0.816v0.091
	c0.182-0.453,1.088-0.998,1.541-1.36c0.182-0.181,0.545-0.816,0.727-0.816c0.271-0.272,0.906-0.272,1.27-0.544
	c0.635-0.363,1.178-0.816,1.904-0.998c1.088-0.272,1.994-0.816,3.082-1.088c1.633-0.454,3.174-0.454,4.807-0.454
	c0.816,0,1.088,0.544,1.904,0.544c0.271,0,0.363-0.091,0.725,0c0.092,0.09,0.363,0.272,0.455,0.272
	c0.635,0.272,1.359,0.544,1.904,0.998c0.18,0.091,0.543,0.181,0.725,0.363c0.182,0,0.271,0.181,0.363,0.272
	c0.906,0.272,1.994,1.542,2.721,2.358c0.361,0.544,0.635,1.36,0.814,1.904c0.273,0.635,0.635,1.179,0.816,1.813
	c0.273,0.635,0.092,1.36,0.363,2.086c0.09,0.816,0.182,1.542,0.09,2.357c-0.18,1.179-0.543,2.267-0.635,3.446
	c-0.09,0.635-0.453,1.088-0.725,1.632c-0.271,0.726-0.453,1.542-0.906,2.267c-0.182,0.272-0.545,0.363-0.545,0.726
	c0,0.272-0.271,0.544-0.453,0.726c-0.545,0.816-1.359,1.36-2.086,1.995l-0.998,1.088c-0.361,0.363-0.814,0.272-1.27,0.454
	l-0.906,0.726c-0.453,0.272-0.725,0.09-1.359,0.09c-1.09,0.182-1.904,0.272-2.994,0.272c-0.453,0-1.631-0.544-1.994-0.907
	l-1.18-1.088c-0.635-0.816-1.088-1.632-1.27-2.63c-0.18-0.544,0.092-1.813,0.545-2.267s1.723-0.816,2.357-0.363
	c0.545,0.363,0.635,0.998,0.363,1.542c-0.363,0.726,0,0.998,0.453,1.542c1.088,1.632,3.627,0.816,5.078,0.09
	c0.816-0.453,1.451-0.907,2.086-1.632c0.271-0.272,0.545-0.635,0.635-0.998c0-0.181,0.271-0.181,0.453-0.362
	c0.635-0.998,0.998-1.542,1.27-2.721c0-0.091,0.092-0.635,0.271-0.635c0,0,0.182-0.816,0.182-0.907l0.363-1.814
	c0.271-1.451,0-2.629-0.453-3.899c-0.363-0.997-0.635-2.085-1.541-2.811c-0.908-0.635-1.725-1.451-2.721-1.995l-1.996-0.725
	c-0.635,0-1.451-0.454-2.086-0.544h-0.906c-0.545,0-1.27,0-1.814,0.182l-2.357,0.816c-0.725,0.272-1.541,0.544-2.266,0.998
	c-0.273,0.182-0.363,0.454-0.635,0.544c-1.543,0.816-2.541,2.086-3.629,3.355l-1.088,1.542c-0.09,0.272-0.906,1.179-0.906,1.451
	c0,1.451-1.361,2.63-1.451,4.081c-0.182,1.632-0.725,3.174-0.09,4.715c0.271,0.726,0.635,1.542,0.635,2.267
	c0.18,0.635,0.361,1.27,0.814,1.814c0.092,0.181,0.182,0.363,0.363,0.544c0.182,0.182-0.182,0.272,0.092,0.454
	c0.635,0.453,0.996,1.179,1.449,1.813c0.455,0.726,1.451,1.542,2.086,1.904c1.725,0.907,3.084,1.995,5.078,2.267
	c1.09,0.182,2.086,0.454,3.174,0.454c0.545,0,1.904-0.363,2.359-0.182c0.18,0.091,0.18-0.181,0.361-0.09
	c0.635,0.181,1.451-0.091,1.996-0.272c0,0,0.09-0.181,0-0.181l0.363-0.091c0.543,0,1.088-0.363,1.631-0.544
	c0.998-0.454,1.904-0.726,2.812-1.36l3.898-2.811c0.545-0.363,0.998-0.907,1.541-1.27c0.273-0.272,0.816-0.544,1.18-0.816
	c0.545-0.544,0.998-1.27,1.633-1.632c1.088-0.725,2.176-1.904,2.992-2.902c0.363-0.544,0.725-1.088,1.27-1.451
	c0.363-0.363,0.543-0.454,0.816-0.907c0.09-0.182,0.635-0.544,0.725-0.816c0.182-0.453,0.727-0.907,1.18-1.36
	c0.271-0.544,0.725-0.907,1.178-1.36c0.363-0.363,0.545-0.635,0.816-1.088c0-0.544,1.18-1.632,1.451-2.085
	c0.545-0.635,1.088-1.27,1.541-1.905c0.545-0.635,0.816-1.179,1.27-1.904c0.363-0.453,0.545-1.179,0.998-1.632
	c0.545-0.544,0.998-1.088,1.451-1.723l2.721-3.99c0.635-1.088,1.451-2.085,2.176-3.174c0.635-1.179,1.27-2.358,1.996-3.537
	c0.725-1.27,1.631-2.448,2.357-3.718c0.906-1.723,2.176-3.083,2.992-4.806v-0.181c-0.453,0-1.451-0.454-1.541-0.816
	c-0.453,0.454-0.816,0.998-0.998,1.542c-0.271,0.725-0.545,1.088-0.906,1.632l-1.904,2.448c-0.635,0.816-1.27,1.723-2.086,2.539
	l-0.998,1.179c-0.271,0.272-0.635,0.362-0.906,0.635l-1.27,1.088c-0.182,0.182-1.633,1.36-1.633,1.36
	c0,0.181-2.811,1.542-3.084,1.723c-0.906,0.363-1.812,0.816-2.719,1.088c-0.635,0.182-2.086,0.454-2.449,0.816v-0.091l-0.906,0.272
	c-0.816,0.363-2.268,0.272-3.174,0.363c-1.451,0.181-2.812,0.091-4.264,0.091c-1.359,0-2.721-0.544-4.08-0.816l-3.537-0.998
	c-0.635-0.272-1.631-0.635-2.176-1.088c-0.816-0.635-1.633-1.088-2.449-1.904c-0.361-0.363-0.814-0.635-1.27-0.907
	c-0.996-0.635-1.723-1.813-2.266-2.72c-0.363-0.544-1.18-1.542-1.18-2.176c-1.451-1.451-2.176-3.99-2.539-5.895
	s-0.998-3.809-0.998-5.804c0-0.907,0.273-1.904,0.363-2.811c0.09-0.907,0-1.814,0.182-2.721l0.635-2.448
	c0.182-0.726,0.363-1.451,0.635-2.086c0.09-0.544,0.271-1.542,0.635-1.904c0.182-0.454,0.543-0.726,0.543-1.27
	c0-0.091,0.182-0.635,0.273-0.726c0.182-0.181,0.182-0.544,0.361-0.725c0.182-0.454,0.273-0.907,0.545-1.36
	c0.635-1.088,1.27-2.086,1.814-3.174c1.088-2.086,2.629-4.081,4.17-5.895c0.182-0.272,0.998-1.36,1.18-1.36
	c0.453,0,0.545-0.998,0.998-0.998c0.09,0,1.359-1.179,1.451-1.36c0.361-0.544,1.359-0.816,1.631-1.36
	c0.182-0.363,0.816-0.726,1.088-0.998c0-0.272,1.361-0.907,1.543-0.998c0.271-0.182,0.543-0.454,0.906-0.635
	c0.363-0.182,0.453-0.544,0.727-0.635l0.996-0.635c0.453-0.182,0.635-0.635,1.18-0.907c1.541-0.907,2.992-1.632,4.625-2.085
	c0.453-0.091,1.088-0.635,1.541-0.635c0.816-0.363,1.633-0.726,2.631-0.998c1.449-0.363,3.174-0.816,4.623-0.907
	c1.814-0.091,3.629-0.544,5.441-0.635c1.723,0,3.355,0.091,5.078,0.272c1.723,0.091,3.447,0.181,5.17,0.363
	c0.725,0.091,1.631,0.363,2.447,0.544c0.727,0.091,1.361,0.091,1.996,0.454c1.994,0.816,4.172,1.36,6.166,2.357
	c1.088,0.635,2.176,1.36,3.266,1.905c0.543,0.181,0.996,0.453,1.449,0.725c0.182,0.091,0.908,0.726,1.18,0.726
	c0.816,0.635,1.359,1.179,2.086,1.813c0.543,0.454,0.998,0.907,1.451,1.451c0.271,0.272,0.816,1.179,1.27,1.179
	c0.182,0,0.182-0.272,0.182-0.272c0.361,0,1.27-1.088,1.541-1.36c0.453-0.453,0.816-0.907,1.359-1.36
	c1.09-0.816,1.996-1.905,3.266-2.54c1.088-0.453,1.812-1.179,2.992-1.542l1.723-0.726c0.453-0.181,1.27-0.362,1.723-0.362
	c1.088-0.182,1.996-0.454,3.084-0.454c0.998,0,2.176-0.181,3.174,0.091c0.725,0.181,1.633,0.635,2.357,0.635
	c0.092,0,0.635,0.09,0.727,0.181c0.635,0.454,1.359,0.998,2.084,1.36c0.635,0.272,0.998,0.544,1.451,1.088
	c0.092,0.09,0.635,0.453,0.635,0.635c0.545,0,1.09,1.723,1.27,2.176c0.998,1.632,1.27,3.809,0.816,5.713
	c-0.09,0.454-0.543,0.907-0.725,1.451c-0.363,0.816-0.727,1.904-1.904,1.904C378.657,77.571,378.204,76.029,378.838,75.032z
	 M337.397,95.254c0.363-0.726,0.725-1.723,1.27-2.267c0.271-0.544,0.543-0.998,0.906-1.451c0.182-0.362,0.816-0.907,0.816-1.27
	c0-0.635,0.906-1.723,1.359-2.176c0.273-0.272,0.363-0.635,0.545-0.998c0.545-0.816,0.816-1.813,1.451-2.539
	c0.271-0.181,0.182-0.363,0.363-0.544c0.18-0.363,0.543-0.544,0.725-0.726c0-0.181,0.271-0.816,0.545-0.816
	c0-0.182,0-0.363,0.18-0.544c0.727-0.726,1.18-1.904,1.814-2.72c1.088-1.451,1.996-2.993,3.445-4.444h-0.09
	c0.545-0.272,0.998-1.088,1.359-1.451c-0.814-0.816-1.449-1.542-2.357-2.358c-0.635-0.544-1.178-1.179-1.812-1.632
	c-1.18-0.907-2.721-1.542-4.082-2.176l-1.359-0.907c-0.545-0.363-1.088-0.544-1.633-0.726c-1.994-0.907-4.262-1.904-6.438-2.267
	c-3.9-0.544-7.891-0.907-11.881-0.907c-1.27,0-2.539,0.454-3.809,0.454c-0.453,0-0.816,0.272-1.178,0.272
	c-0.363,0-0.727-0.182-0.998,0.09c-0.635,0-1.359,0.272-1.994,0.363c-0.727,0.182-1.814,0.272-2.539,0.726
	c-0.273,0.181-0.545,0.091-0.908,0.181l-0.816,0.363c-0.635,0.182-1.451,0.544-2.086,0.907c-0.814,0.362-1.631,0.907-2.447,1.27
	c-0.727,0.272-1.27,0.998-1.996,1.36c-0.271,0.182-1.723,1.179-1.812,1.088c-0.092,0.272-0.635,0.544-0.906,0.726l-1.543,1.451
	c-1.178,0.907-2.268,2.358-3.627,3.265c-0.998,0.816-1.814,2.086-2.629,3.083c-1.543,1.813-2.359,3.99-3.719,5.985
	c-0.725,1.088-1.27,2.358-1.723,3.627c-0.182,0.272-0.363,1.451-0.635,1.723c-0.273,0.272-0.092,0.454-0.182,0.816
	c-0.182,0.454-0.363,0.454-0.363,0.998c0,0.453-0.182,1.451-0.363,1.904c-0.543,1.179-0.635,2.176-0.906,3.446
	c0,0.363,0,0.907-0.182,1.27c0,0.454,0.092,0.816,0.092,1.27c0.182,0.363,0.09,0.998,0.09,1.451
	c0.092,0.816,0.271,1.723,0.453,2.539c0.092,0.726,0.273,1.36,0.545,2.085c0,0.454,0.09,0.998,0.363,1.36
	c0.361,0.544,0.635,1.27,0.906,1.904l1.359,2.267c0.363,0.544,0.635,0.816,0.998,1.451c0.545,1.179,1.451,1.542,2.357,2.358
	c0.816,0.725,1.996,1.542,3.084,1.995c1.359,0.544,2.992,0.726,4.262,1.36c3.99,0.998,8.07,0.726,12.061-0.091
	c1.18-0.181,2.449-0.998,3.627-1.542c0.092-0.091,0.455-0.181,0.635-0.272c0.273-0.272,0.635-0.272,0.908-0.454
	c0.361-0.362,0.906-0.816,1.359-0.816c0.092,0,0.727-0.816,0.816-0.907c0.363-0.454,0.816-0.454,1.18-0.907
	c0.18-0.091,0.361-0.454,0.635-0.454c0.725-0.635,1.359-1.451,1.904-2.267c0.996-1.36,2.266-2.721,2.992-4.262l0.998-1.904
	c0.361-0.816-1.451-1.632-1.996-2.085c-0.182-0.182-1.088-1.36-1.178-1.632c0-0.182-0.545-0.544-0.637-0.816
	c-1.359-2.267-2.357-4.806-2.176-7.617c0.092-0.907,0.363-2.63,1.361-2.63c0.543,0,0.996-0.091,1.178,0.272
	c0.635,0.726,0.182,1.723,0.273,2.539c0.18,0.726,0.09,1.451,0.271,2.267c0.182,0.998,0.635,1.814,0.906,2.63
	c0.635,0.454,0.906,1.088,1.361,1.723c0.18,0.544,0.725,0.816,0.996,1.27c0.453,0.635,0.816,0.453,1.088-0.272
	c0-0.635,0.455-1.179,0.455-1.814c0-1.088,0.361-2.267,0.543-3.355c0.092-0.816,0.092-1.542-0.09-2.358
	c-0.092-0.363-0.363-0.816-0.363-1.179c-0.453-1.632-0.725-3.537-1.904-4.988c-0.271-0.363-1.27-1.995-1.723-1.995
	s-1.18-1.179-1.723-1.36c-1.633-0.544-3.266-1.27-4.988-1.451c-4.896-0.454-9.975,0.816-13.602,4.443
	c-0.908,0.907-1.725,1.723-2.539,2.721c-0.998,1.27-1.814,2.72-2.268,4.353c-0.182,0.544-0.273,1.088-0.545,1.632
	c-0.182,0.363-0.09,0.726-0.09,1.088c0,0.726-0.363,1.36-0.363,1.995c-0.182,1.451,0.09,2.902,0.453,4.262
	c0.363,1.179,1.088,2.177,2.086,2.993c0.727,0.635,1.18,0.091,1.996,0.272c0.906,0.272,1.359,1.542,0.996,2.358
	c-0.361,0.998-1.631,1.179-2.539,1.179c-1.088,0-2.447-0.998-3.174-1.723c-0.906-0.998-1.723-2.358-2.268-3.627
	c-1.088-2.721-0.453-5.441-0.453-8.343c0-1.088,0.727-1.995,0.908-3.174c0.18-0.635,0.635-1.179,0.725-1.814
	c0.545-1.632,1.633-2.72,2.631-3.99c0.453-0.635,0.906-1.542,1.541-1.995l1.27-1.088c0.998-0.907,1.994-1.813,3.264-2.357
	l1.18-0.454c0.271-0.181,2.629-1.27,2.811-0.907c0.092-0.272,1.451-0.544,1.633-0.544c0.363,0,0.816-0.272,1.18-0.362
	c0.361-0.091,0.814,0,1.178,0c0.998,0,2.086-0.091,3.084-0.091c1.451,0,2.811,0.091,4.262,0.635
	c1.178,0.454,3.719,0.998,4.172,2.176c0-0.272,0.453,0.182,0.543,0.272c0,0.182,1.27,1.088,1.451,1.27
	c0.545,0.454,1.451,1.27,1.451,1.995c0.271,0.726,0.998,1.36,1.18,2.086c0.361,1.088,0.725,2.176,0.996,3.265l0.545,2.357
	c0.09,0.907-0.092,1.632-0.092,2.539c0,0.998,0,2.177-0.271,3.174c-0.271,0.997-0.906,2.357-0.906,3.355
	c-0.271,0.816-0.363,0.544,0.453,0.998c0.453,0.272,0.998,0.726,1.541,0.907c0.363,0.091,0.545-0.453,0.727-0.725
	c0.816-1.27,1.451-2.721,2.357-3.99L337.397,95.254z M355.805,79.384l-0.545-1.27l-0.725-1.451
	c-0.182-0.272-0.453-0.363-0.545-0.635c-0.635,0.635-1.088,1.542-1.812,2.086c0,0.181-0.545,1.27-0.635,1.27
	c-0.363,0-1.088,0.907-1.361,1.27c-0.725,1.179-1.631,2.267-2.357,3.537c-1.541,2.63-3.809,5.169-4.896,8.162
	c-0.363,0.907-1.814,2.085-1.814,2.993c0,0.725-0.725,1.36-1.178,1.995c-0.271,0-0.906,1.179-0.906,1.451
	c0,0.091-0.545,1.36-0.635,1.36c-0.273,0.181-0.635,0.998-0.908,1.451c-0.453,0.635-0.725,1.36-1.088,1.995
	c2.539,0.272,4.896,0.272,7.527-0.181c1.178-0.272,2.447-0.544,3.537-0.998c0.814-0.272,1.723-0.907,2.539-1.36
	c1.178-0.454,1.904-1.36,2.719-2.267c2.178-2.448,3.537-5.26,4.354-8.524c0.271-1.088,0.182-2.176,0.363-3.174
	c0.182-0.816-0.273-1.813-0.363-2.63c0-0.816-0.09-1.542-0.09-2.357c0-0.182-0.635-1.542-0.727-1.723
	C356.258,80.11,355.895,79.747,355.805,79.384z"/>
<path d="M336.032,128.535l-0.363,1.179c0,0.726-0.09,1.542,0.092,2.267c0.182,1.542,0.361,3.174,1.359,4.534
	c0.906,1.451,2.086,2.358,3.9,2.176c1.27-0.091,2.176-2.267,3.535-0.907c0.635,0.635,0.908,2.085,0,2.539
	c-1.178,0.635-2.266,1.36-3.627,1.36c-1.451,0.091-2.721-0.363-3.99-0.998c-0.635-0.272-1.178-0.907-1.631-1.36
	c-0.092-0.091-0.182-0.091-0.273-0.272c-0.09-0.091-0.09-0.363-0.182-0.454c-0.361,0-1.178-1.542-0.996-1.904
	c-1.088,0-1.088-6.438-1.088-7.073c0.18-1.813,0.361-3.355,1.178-4.987c0.363-0.998,0.906-1.995,1.18-2.993
	c0.182-0.816,0.906-1.723,1.451-2.448c0.543-0.816,1.088-1.542,1.723-2.177c1.723-1.723,3.537-3.174,5.35-4.534
	c0.816-0.544,1.723-0.907,2.631-1.27l1.178-0.544c0.453-0.181,0.816-0.091,1.27-0.181c0.998-0.091,1.996-0.182,2.902,0
	c0.725,0.09,0.816,0.272,1.18,0.635c0.453,0.453,0.725,0.907,1.088,1.36c0.543,0.544,0.453,1.27,0.453,1.995
	c0.09,1.632-0.727,2.993-1.633,4.262l-0.816,1.088c-0.271,0.453-0.725,0.544-1.178,0.816c-0.273,0-0.998,1.088-1.18,1.088
	c0-0.091-1.18,0.816-1.27,0.907c-0.545,0.363-1.359,0.454-1.723,0.998c-0.182,0.181-0.816,0.635-1.088,0.726
	c-1.633,0.544-2.992,1.451-4.717,1.904l-2.176,0.635l-2.268,0.272C336.032,127.537,336.122,128.081,336.032,128.535z
	 M341.11,123.094c0.453-0.272,0.816-0.544,1.27-0.635c0.635-0.09,1.451-0.816,1.996-0.816c0.814-0.454,2.176-1.088,2.629-1.813
	c0.363-0.454,0.816-0.454,1.18-0.816c0.361-0.272,0.635-0.635,0.996-0.816c0.816-0.544,1.27-1.27,1.904-1.995
	c0.363-0.363,0.545-1.813,0.363-2.267c0-0.635-1.18-0.907-1.633-0.907c-2.539,0.181-4.896,1.995-6.709,3.537
	c-0.998,0.907-1.814,1.904-2.721,2.993c-1.09,1.179-2.449,2.629-2.812,4.262c0.545,0.091,1.18-0.09,1.723-0.272
	C339.932,123.456,340.567,123.456,341.11,123.094z"/>
<path d="M376.383,120.464c-0.361,0.363-0.635,0.725-0.816,1.088c-2.176,2.812-4.896,5.079-7.525,7.436
	c-1.361,1.27-3.174,2.449-4.717,3.627c-2.084,1.451-3.988,2.448-6.348,3.265c-1.449,0.544-3.082,0-4.08-0.998
	c-0.998-1.179-0.998-2.539-0.725-4.081c0.271-1.814,0.906-3.355,1.631-5.079c0-0.272,0.363-0.998,0.545-1.27
	c0.271-0.363,0.363-0.635,0.545-1.088c0-0.454,1.27-2.449,1.541-2.902c0.816-1.632,1.27-2.358,2.268-3.99
	c0.361-0.726,1.449-2.358,1.994-3.355c0.635-1.27,0.635-1.088,1.451-2.267c0.543-0.544,1.088-1.179-0.182-1.27
	c-0.725-0.09-1.359,0-2.086-0.09c-1.451-0.091-1.359-2.086-0.363-2.721c0.998-0.635,2.539-0.272,3.719-0.272
	c0.906,0,1.723,0.272,2.268-0.544c0.543-0.635,0.906-1.36,1.359-1.995c0.635-0.635,0.998-1.542,1.451-2.267
	c0.635-0.816,1.088-1.723,1.541-2.539c0.998-1.632,1.814-3.265,3.084-4.534c0.363-0.544,1.359-2.358,2.086-2.358
	c0.998-0.998,1.904,1.179,1.541,1.995c-0.271,0.544-0.816,1.088-1.178,1.542c-0.182,0.182-0.727,0.726-0.816,0.998
	c-0.363,0.363-0.453,0.998-0.727,1.36c-0.271,0.635-0.816,0.998-1.088,1.632c-0.635,1.088-1.178,2.358-1.904,3.355
	c0,0.363-0.906,1.088-1.088,1.36c-0.363,0.272-0.725,1.088-0.816,1.542c0.906,0.363,1.996,0.363,2.902,0.272
	c0.906-0.182,1.723-0.091,2.629-0.182c1.27,0.091,1.904,0.907,1.361,2.176c-0.363,0.635-0.998,0.816-1.633,0.816
	c-0.998,0-2.086,0.181-3.084,0.181c-1.812,0-3.988-0.725-5.078,0.998c-0.725,1.27-1.631,2.449-2.447,3.627
	c-0.635,1.088-1.27,2.176-1.996,3.265c-1.723,2.811-3.355,5.804-4.533,8.887c-0.271,0.726-1.088,1.542-1.18,2.358
	c-0.182,0.726-0.635,1.36-0.725,2.085c-0.182,0.544-0.271,1.179-0.271,1.723c0.09,0.816,0.996,0.816,1.631,0.635
	c0.545-0.091,0.998-0.544,1.543-0.544c0.543,0,1.359-0.635,1.812-0.907c0.727-0.544,1.451-0.907,2.268-1.36
	c0.543-0.363,1.088-0.816,1.541-1.27c0.453-0.272,1.451-0.816,1.633-1.27c0.09-0.182,0.635-0.454,0.816-0.635l0.725-0.544
	l0.453-0.544c0.182-0.091,0.545-0.272,0.727-0.453c0.271-0.272,0.09-0.454,0.453-0.544c0.09-0.091,0.271-0.363,0.271-0.363
	c0-0.272,0.545-0.272,0.635-0.544c0.092-0.363,0.545-0.635,0.816-0.816c0.727-0.635,1.361-1.632,2.086-2.267
	c1.27-1.179,1.994-3.174,3.99-2.812C376.836,118.741,376.928,119.829,376.383,120.464z"/>
<path d="M373.028,128.535l-0.363,1.179c0,0.726-0.092,1.542,0.09,2.267c0.182,1.542,0.363,3.174,1.361,4.534
	c0.906,1.451,2.086,2.358,3.898,2.176c1.27-0.091,2.176-2.267,3.537-0.907c0.635,0.635,0.906,2.085,0,2.539
	c-1.18,0.635-2.268,1.36-3.627,1.36c-1.451,0.091-2.721-0.363-3.99-0.998c-0.635-0.272-1.18-0.907-1.633-1.36
	c-0.09-0.091-0.182-0.091-0.271-0.272c-0.092-0.091-0.092-0.363-0.182-0.454c-0.363,0-1.18-1.542-0.998-1.904
	c-1.088,0-1.088-6.438-1.088-7.073c0.182-1.813,0.363-3.355,1.18-4.987c0.361-0.998,0.906-1.995,1.178-2.993
	c0.182-0.816,0.908-1.723,1.451-2.448c0.545-0.816,1.088-1.542,1.723-2.177c1.723-1.723,3.537-3.174,5.352-4.534
	c0.814-0.544,1.723-0.907,2.629-1.27l1.18-0.544c0.453-0.181,0.816-0.091,1.27-0.181c0.996-0.091,1.994-0.182,2.9,0
	c0.727,0.09,0.816,0.272,1.18,0.635c0.453,0.453,0.725,0.907,1.088,1.36c0.545,0.544,0.453,1.27,0.453,1.995
	c0.092,1.632-0.725,2.993-1.631,4.262l-0.816,1.088c-0.273,0.453-0.727,0.544-1.18,0.816c-0.271,0-0.998,1.088-1.178,1.088
	c0-0.091-1.18,0.816-1.27,0.907c-0.545,0.363-1.361,0.454-1.725,0.998c-0.18,0.181-0.814,0.635-1.088,0.726
	c-1.633,0.544-2.992,1.451-4.715,1.904l-2.176,0.635l-2.268,0.272C373.028,127.537,373.118,128.081,373.028,128.535z
	 M378.106,123.094c0.453-0.272,0.814-0.544,1.27-0.635c0.635-0.09,1.449-0.816,1.994-0.816c0.816-0.454,2.176-1.088,2.631-1.813
	c0.361-0.454,0.814-0.454,1.178-0.816c0.363-0.272,0.635-0.635,0.998-0.816c0.816-0.544,1.27-1.27,1.904-1.995
	c0.363-0.363,0.543-1.813,0.363-2.267c0-0.635-1.18-0.907-1.633-0.907c-2.539,0.181-4.896,1.995-6.711,3.537
	c-0.998,0.907-1.814,1.904-2.721,2.993c-1.088,1.179-2.447,2.629-2.811,4.262c0.543,0.091,1.178-0.09,1.723-0.272
	C376.926,123.456,377.561,123.456,378.106,123.094z"/>
<path fill="#FFFFFF" d="M105.241,36.086l2.138-0.988l-5.93-12.831l-4.517,2.088l1.17,2.531l-0.873,0.403l-1.523-3.295l11.652-5.386
	l1.523,3.295l-0.873,0.403l-1.17-2.531l-4.495,2.078l5.931,12.831l2.116-0.979l0.353,0.764l-5.149,2.38L105.241,36.086z"/>
<path fill="#FFFFFF" d="M112.79,15.491l-0.258-0.75l2.478-0.852l3.102,9.026c0.512-1.396,1.548-2.82,3.025-3.328
	c1.16-0.398,2.051-0.247,2.755,0.248c0.597,0.405,1.021,1.124,1.318,1.987l1.93,5.616l1.66-0.57l0.258,0.75l-4.138,1.422
	l-0.258-0.75l1.637-0.562l-1.891-5.502c-0.273-0.795-0.621-1.363-1.087-1.685c-0.528-0.353-1.236-0.415-2.054-0.133
	c-1.387,0.477-2.317,1.838-2.881,3.303l2.07,6.025l1.66-0.57l0.258,0.75l-4.138,1.422l-0.258-0.75l1.637-0.562l-5.188-15.096
	L112.79,15.491z"/>
<path fill="#FFFFFF" d="M132.878,21.438c0.799,2.673,2.805,3.688,5.247,3.049c1.302-0.341,2.233-1.057,3.08-1.999l0.162,0.902
	c-0.766,0.872-1.878,1.56-3.133,1.889c-2.954,0.773-5.471-0.68-6.269-3.726c-0.718-2.744,0.604-5.476,3.278-6.176
	c2.767-0.725,4.868,1.037,5.489,3.408c0.061,0.233,0.086,0.425,0.076,0.577L132.878,21.438z M132.707,20.688l7.092-1.857
	c-0.616-1.976-2.193-3.252-4.425-2.668C133.514,16.65,132.356,18.494,132.707,20.688z"/>
<path fill="#FFFFFF" d="M154.314,6.223l-1.977,0.264l-0.111-0.834l5.097-0.679l0.111,0.834l-2.12,0.282l5.693,12.89l2.437-12.64
	l0.572-0.076l5.661,11.561l2.096-13.927l-2.167,0.289l-0.111-0.833l5.097-0.679l0.111,0.833l-1.977,0.264l-2.507,15.752
	l-0.596,0.079l-5.672-11.462l-2.474,12.547l-0.595,0.08L154.314,6.223z"/>
<path fill="#FFFFFF" d="M179.666,13.414c0.268,2.776,2.039,4.16,4.557,4.005c1.343-0.083,2.395-0.605,3.407-1.366l-0.016,0.916
	c-0.919,0.707-2.143,1.167-3.438,1.248c-3.046,0.188-5.235-1.724-5.429-4.866c-0.175-2.83,1.65-5.254,4.409-5.424
	c2.854-0.176,4.575,1.957,4.726,4.403c0.015,0.24,0.003,0.433-0.036,0.58L179.666,13.414z M179.642,12.645l7.316-0.452
	c-0.223-2.057-1.523-3.614-3.826-3.472C181.213,8.839,179.722,10.424,179.642,12.645z"/>
<path fill="#FFFFFF" d="M193.22,12.671c-0.024-2.908,2-5.232,4.956-5.256c1.346-0.011,2.672,0.555,3.593,1.413L201.703,0.8
	l-2.091,0.017l-0.007-0.793L202.585,0l0.138,16.75l1.73-0.014l0.007,0.793l-2.596,0.021l-0.014-1.658
	c-0.904,1.065-2.172,1.844-3.782,1.858C195.377,17.772,193.245,15.675,193.22,12.671z M201.821,15.076l-0.045-5.432
	c-0.896-0.786-2.127-1.448-3.617-1.436c-2.355,0.02-4.022,1.932-4.001,4.431c-0.003,2.548,1.67,4.336,3.953,4.318
	C199.672,16.944,200.892,16.165,201.821,15.076z"/>
<path fill="#FFFFFF" d="M209.377,12.716c0.151-2.904,2.312-5.102,5.264-4.948c1.344,0.07,2.634,0.715,3.501,1.626l0.418-8.017
	l-2.088-0.109l0.041-0.792l2.977,0.155l-0.872,16.729l1.728,0.09l-0.041,0.792l-2.592-0.135l0.086-1.656
	c-0.967,1.009-2.279,1.71-3.888,1.626C211.223,17.938,209.22,15.716,209.377,12.716z M217.817,15.635l0.283-5.425
	c-0.848-0.838-2.036-1.574-3.524-1.652c-2.353-0.123-4.131,1.686-4.262,4.182c-0.156,2.543,1.406,4.43,3.687,4.548
	C215.56,17.371,216.825,16.667,217.817,15.635z"/>
<path fill="#FFFFFF" d="M224.947,17.891l1.865,0.188l0.844-8.369l-1.865-0.188l0.079-0.789l2.75,0.277l-0.923,9.158l1.864,0.188
	l-0.079,0.789l-4.615-0.465L224.947,17.891z M227.54,4.626c0.051-0.502,0.475-0.87,0.953-0.822c0.478,0.048,0.819,0.493,0.769,0.995
	c-0.048,0.479-0.472,0.846-0.949,0.798C227.833,5.549,227.492,5.104,227.54,4.626z"/>
<path fill="#FFFFFF" d="M237.856,12.145c1.096-0.976,2.704-1.802,4.248-1.568c1.307,0.198,2.059,0.847,2.392,1.699
	c0.226,0.593,0.257,1.352,0.135,2.159l-0.89,5.868l1.734,0.263l-0.119,0.784l-4.324-0.655l0.119-0.784l1.711,0.259l0.871-5.75
	c0.101-0.665,0.112-1.222-0.037-1.682c-0.228-0.74-0.835-1.221-1.833-1.372c-1.449-0.22-2.928,0.553-4.082,1.593l-0.954,6.296
	l1.711,0.259l-0.119,0.784l-4.324-0.656l0.119-0.784l1.734,0.263l1.261-8.315l-1.734-0.263l0.118-0.784l2.566,0.389L237.856,12.145z
	"/>
<path fill="#FFFFFF" d="M258.833,24.834c-0.26,1.173-0.763,1.998-1.472,2.53c-1.006,0.762-2.391,0.898-3.939,0.555
	s-2.542-1.081-2.952-1.787c-0.219-0.344-0.282-0.728-0.214-1.033c0.119-0.54,0.573-0.808,1.042-0.704
	c0.399,0.088,0.607,0.479,0.52,0.878c-0.058,0.258-0.256,0.485-0.503,0.603c0.227,0.419,1.035,0.993,2.373,1.289
	c1.221,0.271,2.303,0.166,3.131-0.463c0.537-0.422,0.923-1.051,1.131-1.99l0.525-2.37c-1.076,0.746-2.421,1.26-4.041,0.901
	c-2.651-0.588-4.225-3.153-3.601-5.969c0.599-2.699,3.085-4.585,5.995-3.939c1.408,0.312,2.487,1.216,3.174,2.23l0.286-1.291
	l2.535,0.562l-0.172,0.774l-1.69-0.375L258.833,24.834z M251.73,17.449c-0.526,2.371,0.641,4.549,2.917,5.054
	c1.549,0.343,2.899-0.194,4.02-1.029l1.14-5.139c-0.668-0.985-1.672-1.897-3.174-2.23C254.286,13.583,252.25,15.102,251.73,17.449z"
	/>
<path fill="#FFFFFF" d="M276.167,20.709c1.586-4.282,6.038-6.478,10.275-4.908c4.237,1.569,6.141,6.118,4.555,10.4
	c-1.586,4.282-6.016,6.486-10.275,4.908C276.507,29.549,274.582,24.992,276.167,20.709z M290.05,25.851
	c1.41-3.809-0.145-7.845-3.932-9.247c-3.764-1.394-7.586,0.625-9.005,4.456c-1.411,3.809,0.167,7.853,3.931,9.247
	C284.831,31.709,288.631,29.682,290.05,25.851z"/>
<path fill="#FFFFFF" d="M304.312,22.574c-0.399-0.167-0.829-0.163-1.247-0.02c-0.578,0.253-1.12,0.818-1.604,1.812l-1.79,3.673
	l2.398,1.168l-0.348,0.713l-2.398-1.169l-3.685,7.562l1.793,0.874l-0.347,0.713l-4.148-2.021l0.347-0.713l1.556,0.758l3.686-7.562
	l-1.664-0.811l0.348-0.713l1.664,0.811l1.694-3.479c0.632-1.296,1.344-2.099,2.212-2.398c0.696-0.222,1.33-0.207,2.044,0.141
	c0.756,0.369,1.138,0.956,0.854,1.539c-0.179,0.367-0.597,0.511-0.985,0.322C304.257,23.563,304.145,23.081,304.312,22.574z"/>
</svg>
