<?xml version="1.0" encoding="utf-8"?>
<!-- Generator: Adobe Illustrator 15.0.0, SVG Export Plug-In  -->
<!DOCTYPE svg PUBLIC "-//W3C//DTD SVG 1.1//EN" "http://www.w3.org/Graphics/SVG/1.1/DTD/svg11.dtd" [
	<!ENTITY ns_flows "http://ns.adobe.com/Flows/1.0/">
]>
<svg version="1.1"
	 xmlns="http://www.w3.org/2000/svg" xmlns:xlink="http://www.w3.org/1999/xlink" xmlns:a="http://ns.adobe.com/AdobeSVGViewerExtensions/3.0/"
	 x="0px" y="0px" width="75px" height="22px" viewBox="0 0 75 22" overflow="visible" enable-background="new 0 0 75 22"
	 xml:space="preserve">
<defs>
</defs>
<path fill="#FFFFFF" d="M34.595,7.169c0.469,0.187,0.891,0.374,1.312,0.561c0.89,0.375,1.778,0.797,2.715,1.218
	c0.655,0.28,1.358,0.468,2.06,0.749c0.281,0.094,0.656,0.422,0.983,0.422c0.374,0,0.89-0.328,1.218-0.469
	c0.795-0.281,1.451-0.749,2.152-1.17c0.75-0.422,1.498-0.75,2.295-1.124c0.795-0.421,1.545-0.843,2.387-1.077
	c0.75-0.28,1.498-0.515,2.248-0.842c0.374-0.141,0.701-0.281,1.076-0.375s0.655-0.141,0.982-0.234
	c0.656-0.141,1.312-0.468,1.967-0.654c0.89-0.328,1.732-0.562,2.622-0.703c0.796-0.141,1.591-0.281,2.34-0.468
	c0.375-0.094,0.796-0.188,1.171,0c0.141-0.141,0.655-0.141,0.843-0.141c0.28,0,0.515-0.14,0.749-0.14
	c0.374,0,0.796,0.046,1.17,0.093c0.749,0.047,1.451,0.188,2.2,0.328c0.702,0.093,1.686,0.233,2.341,0.562
	c0.702,0.375,1.451,0.608,2.106,1.029c0.375,0.188,0.843,0.328,1.03,0.656c0.281,0.374,0.702,0.608,0.937,1.029
	c0.796,1.451,1.357,3.137,1.029,4.822c-0.187,0.796-0.515,1.498-1.123,2.106c-0.234,0.281-0.562,0.562-0.843,0.843
	c-0.234,0.234-0.655,0.749-0.937,0.796c-0.28,0.094-0.421,0.421-0.655,0.562c-0.234,0.094-0.562,0.141-0.796,0.328
	c-0.327,0.141-0.562,0.141-0.843,0.281c-0.374,0.14-0.89,0.374-1.264,0.374c-0.937,0.047-1.873,0.187-2.809,0.233
	c-0.516,0-1.03,0.047-1.498,0.047c-0.516,0.047-0.562,0.516-0.749,0.891c-0.188,0.233-0.375,0.467-0.516,0.748
	c-0.187,0.328-0.421,0.422-0.702,0.656c-0.233,0.187-0.374,0.374-0.655,0.561c-0.327,0.234-0.702,0.422-1.076,0.656
	c-1.405,0.796-2.903,1.029-4.448,1.357c-0.374,0.094-0.795,0-1.17,0.094c-0.468,0.094-0.889,0.094-1.357,0.094
	c-1.076-0.047-2.153-0.141-3.184-0.375c-3.511-0.749-6.694-2.2-9.784-3.885c-1.498-0.844-3.089-1.779-4.728-2.295
	c-0.422-0.141-0.89,0.188-1.265,0.375c-0.421,0.234-0.889,0.422-1.311,0.608c-0.937,0.421-1.873,0.89-2.762,1.358
	c-1.544,0.748-2.996,1.872-4.634,2.434c-0.843,0.328-1.639,0.702-2.481,0.89c-0.468,0.094-0.936,0.233-1.404,0.28
	c-0.468,0.094-0.936,0.047-1.357,0.234c-0.375,0.188-0.89,0.094-1.311,0.188c-0.468,0.047-0.889,0.047-1.357,0.047
	c-0.843,0-1.686,0.047-2.528-0.047c-0.796-0.047-1.451-0.422-2.107-0.702c-0.234-0.141-0.515-0.374-0.702-0.468
	c-0.094-0.094-0.749-0.281-0.796-0.422c0-0.047-0.468-0.375-0.515-0.375c-0.375-0.187-0.468-0.654-0.796-0.936
	c-0.281-0.234-0.188-0.655-0.421-0.89c-0.328-0.327-0.421-0.843-0.655-1.218c-0.188-0.421-0.234-0.795-0.281-1.264
	c0-0.188,0-0.421-0.047-0.608c-0.187-0.093-0.421-0.093-0.608-0.14c-0.375,0-0.796,0-1.17-0.094
	c-0.375-0.047-0.702-0.328-1.03-0.375c-0.655-0.141-1.311-0.422-1.919-0.655c-0.328-0.141-0.562-0.374-0.843-0.515
	c-0.328-0.234-0.795-0.469-1.03-0.75c-0.562-0.561-0.983-1.451-1.357-2.105C0.515,9.837,0.421,9.462,0.281,9.088
	C0.14,8.714,0,8.245,0,7.823c0-0.468,0.047-0.936,0.093-1.357C0.14,6.045,0.375,5.718,0.375,5.343c0-0.422,0.281-0.749,0.468-1.123
	C1.03,3.798,1.17,3.282,1.498,2.908c0.375-0.468,0.749-0.89,1.311-1.264C3.089,1.457,3.371,1.27,3.745,1.13
	c0.14-0.047,0.281-0.047,0.421-0.141c0.141-0.094,0.188-0.281,0.375-0.234c0.14,0,0.515-0.141,0.655-0.188
	C5.571,0.427,5.945,0.286,6.32,0.192c0.421-0.093,0.796,0,1.217,0c0.515-0.046,0.983-0.14,1.498-0.187
	c1.872-0.047,3.698,0.187,5.524,0.608c1.545,0.328,3.043,0.562,4.587,0.937c0.328,0.047,0.843,0.094,1.124,0.28
	c0.281,0.188,0.702,0.375,1.077,0.422c0.234,0.047,0.421,0.234,0.702,0.281c0.421,0.094,0.796,0.374,1.217,0.421
	c1.498,0.28,2.949,1.171,4.447,1.592c1.217,0.374,2.434,0.796,3.558,1.264c0.655,0.328,1.545-0.421,2.06-0.796
	c0.562-0.421,1.216-0.702,1.873-0.936c0.842-0.281,1.639-0.609,2.387-0.937c0.891-0.375,1.873-0.655,2.81-1.03
	c1.592-0.608,3.229-0.982,4.915-1.264c0.89-0.141,1.779-0.141,2.669-0.141c0.374,0,0.702-0.047,1.123,0
	c0.421,0.094,0.843,0.188,1.312,0.281c0.889,0.188,2.105,0.28,2.855,0.889c0.327,0.234,0.327,0.75,0,0.983
	c-0.328,0.281-0.75,0.234-1.124,0.094C51.167,2.44,49.856,2.3,48.733,2.206C48.124,2.159,47.47,2.3,46.86,2.253
	c-0.188,0-0.188,0.094-0.328,0.094c-0.233-0.047-0.467-0.047-0.701,0c-1.171,0.141-2.341,0.375-3.465,0.655
	c-0.936,0.233-1.732,0.749-2.621,1.03c-0.983,0.327-1.873,0.795-2.855,1.123c-1.171,0.328-2.061,0.89-3.09,1.545
	C33.894,6.935,34.408,7.075,34.595,7.169z M25.701,5.483c-0.89-0.328-1.826-0.656-2.715-0.983c-0.749-0.28-1.498-0.468-2.247-0.749
	c-0.421-0.141-0.749-0.375-1.17-0.516c-0.375-0.187-0.795-0.187-1.217-0.327c-0.375-0.141-0.843-0.141-1.264-0.187
	c-0.328-0.047-0.655-0.188-1.03-0.281c-0.421-0.094-0.89-0.188-1.358-0.234c-0.468-0.094-0.983-0.328-1.451-0.328
	c-0.889-0.047-1.685-0.28-2.575-0.28c-0.936,0-1.826-0.047-2.762,0.047C7.443,1.69,7.022,1.69,6.554,1.737S5.758,2.019,5.336,2.159
	C4.962,2.253,4.681,2.394,4.354,2.581C4.213,2.675,4.026,2.675,3.885,2.768C3.651,2.861,3.558,3.096,3.371,3.235
	C3.136,3.47,2.996,3.563,2.809,3.845C2.622,4.173,2.434,4.406,2.294,4.733C2.247,4.968,2.153,5.108,2.06,5.296
	C1.873,5.718,1.826,5.998,1.732,6.419C1.498,7.122,1.638,8.011,1.779,8.714C2.06,9.041,2.2,9.368,2.34,9.743
	c0.188,0.422,0.515,0.749,0.703,1.217c0.046,0.094,0.328,0.469,0.421,0.516c0.094,0,0.468,0.234,0.515,0.327
	c0.187,0.234,0.562,0.234,0.749,0.468c0.421-0.047,0.983,0.328,1.357,0.469c0.281,0.094,0.562,0.094,0.796,0.188
	c0.234,0.094,0.468,0.234,0.702,0.234c0.281,0.047,0.609,0.047,0.89,0c0.515-0.047,0.562-0.188,0.749-0.656
	c0.094-0.281,0.187-0.608,0.281-0.889c0.234-0.234,0.421-0.469,0.609-0.75c0.375-0.515,0.795-0.795,1.264-1.17
	c2.107-1.686,4.869-1.732,7.49-1.498c0.656,0.094,1.311,0.141,2.013,0.234c0.515,0.047,1.124,0.047,1.639,0.188
	c0.608,0.14,1.264,0.374,1.826,0.561c0.328,0.094,0.702,0.328,0.983,0.188c0.188-0.094,0.375-0.141,0.562-0.28
	c0.281-0.188,0.843-0.421,1.077-0.515c0.187-0.094,0.468-0.188,0.608-0.234c0.234,0,0.281-0.328,0.468-0.328
	c0.515,0,1.077-0.608,1.498-0.842c0.515-0.234-1.077-0.609-1.264-0.609C27.526,6.092,26.543,5.764,25.701,5.483z M31.693,13.769
	c-0.328-0.14-0.749-0.515-1.077-0.515c-0.281-0.046-0.702-0.233-0.983-0.327c-0.328-0.094-0.562-0.234-0.936-0.281
	s-0.843-0.328-1.217-0.469c-0.421-0.187-0.843-0.421-1.311-0.607c-0.234-0.094-0.515-0.281-0.796-0.328
	c-0.375-0.047-0.937,0.328-1.264,0.469c-0.749,0.374-1.591,0.607-2.434,0.795c-0.421,0.094-0.796,0.375-1.217,0.516
	c-0.468,0.141-0.983,0.28-1.545,0.374c-1.919,0.421-3.839,0.89-5.805,1.124c-0.843,0.141-1.779,0-2.575,0.188
	c-0.562,0.14,0.328,1.965,0.608,2.293c0.234,0.281,0.375,0.656,0.562,0.983c0.234,0.468,0.468,0.562,0.843,0.89
	c0.655,0.515,1.404,0.842,2.2,1.029c1.826,0.469,3.698,0.281,5.665,0c0.937-0.188,1.873-0.374,2.762-0.562
	c0.796-0.187,1.498-0.655,2.153-0.89c1.357-0.515,2.622-1.451,3.886-2.106c0.796-0.468,1.591-0.89,2.481-1.217
	c0.234-0.094,1.545-0.608,1.124-0.89C32.489,14.05,32.067,13.909,31.693,13.769z M18.21,9.743c-1.03,0.047-2.153-0.281-3.137,0.094
	c-0.375,0.141-0.795,0.141-1.17,0.234c-0.608,0.141-1.123,0.562-1.591,0.889c-0.468,0.328-0.749,0.609-1.124,1.077
	c-0.141,0.187-0.234,0.421-0.328,0.655c-0.141,0.516,0.093,0.469,0.562,0.422c1.077-0.094,2.153-0.188,3.277-0.422
	c0.562-0.094,1.124-0.141,1.732-0.234c0.234-0.047,0.515-0.141,0.796-0.234c0.281-0.093,0.562-0.093,0.889-0.187
	c0.468-0.141,0.937-0.188,1.405-0.374c0.281-0.094,0.562-0.141,0.842-0.234s0.562-0.281,0.796-0.281
	c0.234-0.047,0.468-0.281,0.655-0.234c0.281,0.047,0.937-0.234,1.077-0.468c-0.328-0.188-0.702-0.233-1.03-0.28
	C20.645,9.931,19.428,9.696,18.21,9.743z M36.562,9.743c-0.141-0.094-0.422-0.188-0.608-0.234c-0.234-0.094-0.328-0.188-0.562-0.281
	c-0.188-0.093-0.516-0.093-0.656-0.28C34.642,8.9,34.408,8.76,34.314,8.714c-0.562-0.281-1.17-0.562-1.779-0.75
	c-0.281-0.141-0.515-0.234-0.796-0.094c-0.234,0.141-0.562,0.234-0.843,0.375c-0.468,0.188-0.936,0.515-1.357,0.749
	c-0.656,0.327-1.358,0.702-2.013,1.124c-0.328,0.233-0.047,0.327,0.234,0.421c0.281,0.047,0.515,0.187,0.749,0.327
	c0.468,0.281,1.217,0.469,1.779,0.562c0.655,0.281,1.311,0.515,1.966,0.795c0.468,0.188,0.936,0.375,1.357,0.562
	c0.234,0.094,0.469,0.234,0.655,0.328c0.188,0.094,0.374,0.094,0.562,0.187c0.375,0.188,1.171-0.233,1.545-0.468
	c0.375-0.281,0.703-0.469,1.124-0.609c0.562-0.233,1.357-0.514,1.825-0.842c0.281-0.281,0.234-0.328-0.141-0.516
	c-0.327-0.141-0.654-0.233-0.982-0.374C37.638,10.305,37.123,9.978,36.562,9.743z M55.334,15.782
	c-0.796-0.188-1.639-0.422-2.481-0.516c-0.328-0.047-0.749-0.233-1.076-0.327c-0.188-0.047-0.328-0.141-0.516-0.233
	c-0.188-0.047-0.468-0.047-0.655-0.094c-0.843-0.281-1.825-0.422-2.528-0.844c-0.233-0.094-0.561-0.187-0.795-0.233
	c-0.188-0.047-0.375-0.094-0.609-0.141c-0.233-0.094-0.421-0.233-0.654-0.327c-0.281-0.094-0.562,0-0.844-0.234
	c-0.187-0.141-0.654-0.188-0.889-0.281c-0.422-0.094-0.843-0.141-1.264-0.234c-0.281-0.094-1.171-0.515-1.451-0.327
	c-0.562,0.468-1.545,0.749-2.201,1.077c-0.655,0.327-1.357,0.515-1.919,0.936c-0.374,0.328,0.327,0.516,0.608,0.656
	c0.375,0.233,0.843,0.327,1.17,0.607c0.328,0.234,0.656,0.281,0.983,0.516c0.281,0.188,0.655,0.468,0.937,0.608
	c2.527,1.171,5.056,2.575,7.865,3.276c2.668,0.656,5.336,0.797,8.051,0.141c1.171-0.28,2.061-0.889,3.184-1.404
	c0.328-0.188,0.796-0.655,1.03-0.982c0.094-0.234,0.188-0.422,0.188-0.656c-0.281-0.14-0.608-0.094-0.937-0.094
	C58.751,16.484,57.019,16.25,55.334,15.782z M68.723,14.706c0.749-0.188,1.732-0.656,2.294-1.218
	c0.281-0.234,0.562-0.515,0.843-0.796c0.141-0.188,0.28-0.328,0.468-0.469c0.047-0.187,0.141-0.327,0.234-0.514
	c0.281-0.516,0.421-1.265,0.374-1.873c-0.046-0.375-0.046-0.89-0.233-1.217c-0.188-0.328-0.281-0.656-0.469-0.983
	c-0.421-0.843-0.982-1.312-1.825-1.732c-0.562-0.327-1.218-0.655-1.873-0.843c-0.233-0.047-0.094-0.094-0.187-0.141
	c-0.188-0.047-0.375-0.047-0.562-0.141c-0.374-0.14-0.843-0.094-1.264-0.187c-0.843-0.141-1.686-0.421-2.528-0.281
	c-0.843,0.141-1.685,0.094-2.48,0.188c-1.592,0.141-3.137,0.562-4.635,1.077c-0.937,0.28-1.825,0.607-2.763,0.748
	c-0.701,0.094-1.498,0.469-2.152,0.75c-0.844,0.327-1.732,0.607-2.528,0.982s-1.545,0.702-2.341,1.03
	c-0.516,0.233-1.17,0.562-1.639,0.937c-0.375,0.327-1.029,0.421-1.311,0.889c0.375,0.188,0.796,0.188,1.17,0.328
	c0.422,0.141,0.796,0.281,1.217,0.422c0.984,0.233,1.873,0.607,2.81,0.889c0.421,0.141,0.843,0.234,1.264,0.328
	c0.375,0.094,0.749,0.374,1.171,0.421c0.374,0.047,0.842,0.094,1.17,0.328c0.328,0.233,0.89,0.187,1.311,0.28
	c1.639,0.469,3.324,0.843,5.057,0.983c0.796,0.094,1.592,0.141,2.387,0.234c0.609,0.093,0.703-0.234,0.656-0.796
	c0-0.469-0.047-1.03-0.234-1.404c-0.141-0.281-0.281-0.656-0.469-0.937c-0.187-0.327-0.562-0.468-0.842-0.749
	c-0.188-0.188-0.469-0.469-0.749-0.562c-0.094-0.046-0.469-0.046-0.562-0.187c-0.093-0.234-0.843-0.327-1.076-0.327
	c-0.515,0-0.983,0.093-1.405,0.28c-0.374,0.094-0.748,0.188-1.076,0.374c-0.422,0.188-0.843,0.281-1.217-0.047
	c-1.404-1.311,2.434-2.059,3.137-2.105c0.795-0.047,1.311,0.093,2.013,0.327c0.749,0.233,1.592,0.608,2.106,1.124
	c0.843,0.889,1.545,1.685,1.826,2.949c0.14,0.654,0.233,1.264,0.233,1.919c0.047,0.374,0.422,0.233,0.749,0.233
	c0.422,0,0.843-0.047,1.265-0.093C66.99,15.127,67.833,14.986,68.723,14.706z"/>
</svg>
